<mxfile host="65bd71144e">
    <diagram id="xMfQkSTWpMesIF-vk9x8" name="Page-1">
        <mxGraphModel dx="1344" dy="596" grid="1" gridSize="10" guides="1" tooltips="1" connect="1" arrows="1" fold="1" page="1" pageScale="1" pageWidth="850" pageHeight="1100" math="0" shadow="0">
            <root>
                <mxCell id="0"/>
                <mxCell id="1" parent="0"/>
                <mxCell id="8" style="edgeStyle=none;html=1;entryX=0;entryY=0.25;entryDx=0;entryDy=0;exitX=1.01;exitY=0.232;exitDx=0;exitDy=0;exitPerimeter=0;" parent="1" source="3" target="6" edge="1">
                    <mxGeometry relative="1" as="geometry"/>
                </mxCell>
                <mxCell id="3" value="" style="strokeWidth=1;shadow=0;dashed=0;align=center;html=1;shape=mxgraph.mockup.containers.browserWindow;rSize=0;strokeColor=#666666;strokeColor2=#008cff;strokeColor3=#c4c4c4;mainText=,;recursiveResize=0;" parent="1" vertex="1">
                    <mxGeometry x="40" y="200" width="310" height="390" as="geometry"/>
                </mxCell>
                <mxCell id="4" value="Page 1" style="strokeWidth=1;shadow=0;dashed=0;align=center;html=1;shape=mxgraph.mockup.containers.anchor;fontSize=17;fontColor=#666666;align=left;" parent="3" vertex="1">
                    <mxGeometry x="60" y="12" width="110" height="26" as="geometry"/>
                </mxCell>
                <mxCell id="5" value="https://www.draw.io" style="strokeWidth=1;shadow=0;dashed=0;align=center;html=1;shape=mxgraph.mockup.containers.anchor;rSize=0;fontSize=17;fontColor=#666666;align=left;" parent="3" vertex="1">
                    <mxGeometry x="130" y="60" width="250" height="26" as="geometry"/>
                </mxCell>
                <mxCell id="18" style="edgeStyle=none;html=1;exitX=0;exitY=0.75;exitDx=0;exitDy=0;entryX=1.009;entryY=0.738;entryDx=0;entryDy=0;entryPerimeter=0;" parent="1" source="6" target="3" edge="1">
                    <mxGeometry relative="1" as="geometry"/>
                </mxCell>
                <mxCell id="6" value="&lt;font color=&quot;#000000&quot;&gt;Express&lt;/font&gt;" style="swimlane;whiteSpace=wrap;html=1;fontSize=21;container=0;fillColor=#99CCFF;gradientColor=none;swimlaneFillColor=#99CCFF;startSize=40;" parent="1" vertex="1">
                    <mxGeometry x="530" y="190" width="330" height="400" as="geometry"/>
                </mxCell>
                <mxCell id="20" style="edgeStyle=none;html=1;entryX=0;entryY=0.75;entryDx=0;entryDy=0;" parent="6" source="11" target="6" edge="1">
                    <mxGeometry relative="1" as="geometry"/>
                </mxCell>
                <mxCell id="11" value="request asking for graphQL?" style="text;html=1;strokeColor=none;fillColor=none;align=center;verticalAlign=middle;whiteSpace=wrap;rounded=0;" parent="6" vertex="1">
                    <mxGeometry x="100" y="150" width="120" height="40" as="geometry"/>
                </mxCell>
                <mxCell id="13" style="edgeStyle=none;html=1;exitX=0;exitY=0.25;exitDx=0;exitDy=0;entryX=0.5;entryY=0;entryDx=0;entryDy=0;" parent="6" source="6" target="11" edge="1">
                    <mxGeometry relative="1" as="geometry"/>
                </mxCell>
                <mxCell id="16" value="Yes" style="text;html=1;strokeColor=none;fillColor=none;align=center;verticalAlign=middle;whiteSpace=wrap;rounded=0;" parent="6" vertex="1">
                    <mxGeometry x="270" y="210" width="60" height="30" as="geometry"/>
                </mxCell>
                <mxCell id="19" value="No" style="text;html=1;strokeColor=none;fillColor=none;align=center;verticalAlign=middle;whiteSpace=wrap;rounded=0;" parent="6" vertex="1">
                    <mxGeometry x="50" y="270" width="60" height="30" as="geometry"/>
                </mxCell>
                <mxCell id="10" value="request" style="text;html=1;strokeColor=none;fillColor=none;align=center;verticalAlign=middle;whiteSpace=wrap;rounded=0;" parent="1" vertex="1">
                    <mxGeometry x="400" y="260" width="60" height="30" as="geometry"/>
                </mxCell>
                <mxCell id="17" style="edgeStyle=none;html=1;entryX=0;entryY=0.75;entryDx=0;entryDy=0;" parent="1" source="14" target="6" edge="1">
                    <mxGeometry relative="1" as="geometry"/>
                </mxCell>
                <mxCell id="40" style="edgeStyle=none;html=1;exitX=1;exitY=0.25;exitDx=0;exitDy=0;entryX=0;entryY=0.25;entryDx=0;entryDy=0;" parent="1" source="14" target="39" edge="1">
                    <mxGeometry relative="1" as="geometry"/>
                </mxCell>
                <mxCell id="14" value="&lt;font color=&quot;#000000&quot;&gt;GraphQL&lt;/font&gt;" style="rounded=0;whiteSpace=wrap;html=1;fontFamily=Helvetica;fontSize=12;fontColor=#FFFFFF;fillColor=#99CCFF;" parent="1" vertex="1">
                    <mxGeometry x="950" y="480" width="80" height="30" as="geometry"/>
                </mxCell>
                <mxCell id="15" style="edgeStyle=none;html=1;entryX=0;entryY=0;entryDx=0;entryDy=0;" parent="1" source="11" target="14" edge="1">
                    <mxGeometry relative="1" as="geometry"/>
                </mxCell>
                <mxCell id="26" style="edgeStyle=none;html=1;entryX=0.5;entryY=0;entryDx=0;entryDy=0;startArrow=none;" parent="1" source="28" target="25" edge="1">
                    <mxGeometry relative="1" as="geometry"/>
                </mxCell>
                <mxCell id="21" value="" style="strokeWidth=1;shadow=0;dashed=0;align=center;html=1;shape=mxgraph.mockup.containers.browserWindow;rSize=0;strokeColor=#666666;strokeColor2=#008cff;strokeColor3=#c4c4c4;mainText=,;recursiveResize=0;" parent="1" vertex="1">
                    <mxGeometry x="390" y="710" width="310" height="210" as="geometry"/>
                </mxCell>
                <mxCell id="22" value="Page 1" style="strokeWidth=1;shadow=0;dashed=0;align=center;html=1;shape=mxgraph.mockup.containers.anchor;fontSize=17;fontColor=#666666;align=left;" parent="21" vertex="1">
                    <mxGeometry x="60" y="12" width="110" height="26" as="geometry"/>
                </mxCell>
                <mxCell id="23" value="https://www.draw.io" style="strokeWidth=1;shadow=0;dashed=0;align=center;html=1;shape=mxgraph.mockup.containers.anchor;rSize=0;fontSize=17;fontColor=#666666;align=left;" parent="21" vertex="1">
                    <mxGeometry x="130" y="60" width="250" height="26" as="geometry"/>
                </mxCell>
                <mxCell id="24" value="GrapiQL" style="text;html=1;strokeColor=none;fillColor=none;align=center;verticalAlign=middle;whiteSpace=wrap;rounded=0;" parent="21" vertex="1">
                    <mxGeometry x="125" y="140" width="60" height="30" as="geometry"/>
                </mxCell>
                <mxCell id="36" style="edgeStyle=none;html=1;entryX=0.5;entryY=0;entryDx=0;entryDy=0;" parent="1" source="25" target="30" edge="1">
                    <mxGeometry relative="1" as="geometry"/>
                </mxCell>
                <mxCell id="37" style="edgeStyle=none;html=1;exitX=0.25;exitY=1;exitDx=0;exitDy=0;entryX=0.5;entryY=0;entryDx=0;entryDy=0;" parent="1" source="25" target="29" edge="1">
                    <mxGeometry relative="1" as="geometry"/>
                </mxCell>
                <mxCell id="38" style="edgeStyle=none;html=1;exitX=0.75;exitY=1;exitDx=0;exitDy=0;entryX=0.5;entryY=0;entryDx=0;entryDy=0;" parent="1" source="25" target="31" edge="1">
                    <mxGeometry relative="1" as="geometry"/>
                </mxCell>
                <mxCell id="25" value="&lt;font color=&quot;#000000&quot;&gt;Express/GraphQL Server&lt;/font&gt;" style="rounded=0;whiteSpace=wrap;html=1;fontFamily=Helvetica;fontSize=12;fontColor=#FFFFFF;fillColor=#99CCFF;" parent="1" vertex="1">
                    <mxGeometry x="365" y="1000" width="360" height="40" as="geometry"/>
                </mxCell>
                <mxCell id="27" value="" style="edgeStyle=none;html=1;entryX=0.5;entryY=0;entryDx=0;entryDy=0;endArrow=none;" parent="1" source="21" target="28" edge="1">
                    <mxGeometry relative="1" as="geometry">
                        <mxPoint x="545" y="920" as="sourcePoint"/>
                        <mxPoint x="545" y="1000" as="targetPoint"/>
                    </mxGeometry>
                </mxCell>
                <mxCell id="28" value="GraphQL Query" style="text;html=1;strokeColor=none;fillColor=none;align=center;verticalAlign=middle;whiteSpace=wrap;rounded=0;" parent="1" vertex="1">
                    <mxGeometry x="492.5" y="940" width="105" height="30" as="geometry"/>
                </mxCell>
                <mxCell id="35" value="" style="edgeStyle=none;html=1;" parent="1" source="29" target="32" edge="1">
                    <mxGeometry relative="1" as="geometry"/>
                </mxCell>
                <mxCell id="29" value="&lt;font color=&quot;#000000&quot;&gt;Outside Server #1&lt;/font&gt;" style="rounded=0;whiteSpace=wrap;html=1;fontFamily=Helvetica;fontSize=12;fontColor=#FFFFFF;fillColor=#99CCFF;" parent="1" vertex="1">
                    <mxGeometry x="365" y="1100" width="115" height="40" as="geometry"/>
                </mxCell>
                <mxCell id="30" value="&lt;font color=&quot;#000000&quot;&gt;Outside API&lt;/font&gt;" style="rounded=0;whiteSpace=wrap;html=1;fontFamily=Helvetica;fontSize=12;fontColor=#FFFFFF;fillColor=#99CCFF;" parent="1" vertex="1">
                    <mxGeometry x="510" y="1100" width="115" height="40" as="geometry"/>
                </mxCell>
                <mxCell id="34" value="" style="edgeStyle=none;html=1;" parent="1" source="31" target="33" edge="1">
                    <mxGeometry relative="1" as="geometry"/>
                </mxCell>
                <mxCell id="31" value="&lt;span style=&quot;color: rgb(0, 0, 0);&quot;&gt;Outside Server #2&lt;/span&gt;" style="rounded=0;whiteSpace=wrap;html=1;fontFamily=Helvetica;fontSize=12;fontColor=#FFFFFF;fillColor=#99CCFF;" parent="1" vertex="1">
                    <mxGeometry x="660" y="1100" width="115" height="40" as="geometry"/>
                </mxCell>
                <mxCell id="32" value="&lt;font color=&quot;#000000&quot;&gt;Database&lt;/font&gt;" style="rounded=0;whiteSpace=wrap;html=1;fontFamily=Helvetica;fontSize=12;fontColor=#FFFFFF;fillColor=#99CCFF;" parent="1" vertex="1">
                    <mxGeometry x="360" y="1180" width="115" height="40" as="geometry"/>
                </mxCell>
                <mxCell id="33" value="&lt;font color=&quot;#000000&quot;&gt;Database&lt;/font&gt;" style="rounded=0;whiteSpace=wrap;html=1;fontFamily=Helvetica;fontSize=12;fontColor=#FFFFFF;fillColor=#99CCFF;" parent="1" vertex="1">
                    <mxGeometry x="660" y="1180" width="115" height="40" as="geometry"/>
                </mxCell>
                <mxCell id="48" style="edgeStyle=none;html=1;exitX=0;exitY=0.75;exitDx=0;exitDy=0;entryX=1;entryY=0.75;entryDx=0;entryDy=0;" parent="1" source="39" target="14" edge="1">
                    <mxGeometry relative="1" as="geometry"/>
                </mxCell>
                <mxCell id="39" value="&lt;font color=&quot;#000000&quot;&gt;server&lt;/font&gt;" style="rounded=0;whiteSpace=wrap;html=1;fontFamily=Helvetica;fontSize=12;fontColor=#FFFFFF;fillColor=#99CCFF;" parent="1" vertex="1">
                    <mxGeometry x="1100" y="480" width="80" height="30" as="geometry"/>
                </mxCell>
                <mxCell id="47" value="get User #23" style="text;html=1;strokeColor=none;fillColor=none;align=center;verticalAlign=middle;whiteSpace=wrap;rounded=0;" parent="1" vertex="1">
                    <mxGeometry x="1028" y="460" width="80" height="30" as="geometry"/>
                </mxCell>
                <mxCell id="49" value="here we go" style="text;html=1;strokeColor=none;fillColor=none;align=center;verticalAlign=middle;whiteSpace=wrap;rounded=0;" parent="1" vertex="1">
                    <mxGeometry x="1028" y="497" width="80" height="30" as="geometry"/>
                </mxCell>
                <mxCell id="50" value="" style="shape=table;html=1;whiteSpace=wrap;startSize=0;container=1;collapsible=0;childLayout=tableLayout;" parent="1" vertex="1">
                    <mxGeometry x="135" y="1310" width="215" height="200" as="geometry"/>
                </mxCell>
                <mxCell id="51" value="" style="shape=tableRow;horizontal=0;startSize=0;swimlaneHead=0;swimlaneBody=0;top=0;left=0;bottom=0;right=0;collapsible=0;dropTarget=0;fillColor=none;points=[[0,0.5],[1,0.5]];portConstraint=eastwest;" parent="50" vertex="1">
                    <mxGeometry width="215" height="40" as="geometry"/>
                </mxCell>
                <mxCell id="72" value="Property Name" style="shape=partialRectangle;html=1;whiteSpace=wrap;connectable=0;fillColor=none;top=0;left=0;bottom=0;right=0;overflow=hidden;" parent="51" vertex="1">
                    <mxGeometry width="108" height="40" as="geometry">
                        <mxRectangle width="108" height="40" as="alternateBounds"/>
                    </mxGeometry>
                </mxCell>
                <mxCell id="52" value="Type" style="shape=partialRectangle;html=1;whiteSpace=wrap;connectable=0;fillColor=none;top=0;left=0;bottom=0;right=0;overflow=hidden;" parent="51" vertex="1">
                    <mxGeometry x="108" width="107" height="40" as="geometry">
                        <mxRectangle width="107" height="40" as="alternateBounds"/>
                    </mxGeometry>
                </mxCell>
                <mxCell id="55" value="" style="shape=tableRow;horizontal=0;startSize=0;swimlaneHead=0;swimlaneBody=0;top=0;left=0;bottom=0;right=0;collapsible=0;dropTarget=0;fillColor=none;points=[[0,0.5],[1,0.5]];portConstraint=eastwest;" parent="50" vertex="1">
                    <mxGeometry y="40" width="215" height="40" as="geometry"/>
                </mxCell>
                <mxCell id="73" value="id" style="shape=partialRectangle;html=1;whiteSpace=wrap;connectable=0;fillColor=none;top=0;left=0;bottom=0;right=0;overflow=hidden;" parent="55" vertex="1">
                    <mxGeometry width="108" height="40" as="geometry">
                        <mxRectangle width="108" height="40" as="alternateBounds"/>
                    </mxGeometry>
                </mxCell>
                <mxCell id="56" value="ID" style="shape=partialRectangle;html=1;whiteSpace=wrap;connectable=0;fillColor=none;top=0;left=0;bottom=0;right=0;overflow=hidden;" parent="55" vertex="1">
                    <mxGeometry x="108" width="107" height="40" as="geometry">
                        <mxRectangle width="107" height="40" as="alternateBounds"/>
                    </mxGeometry>
                </mxCell>
                <mxCell id="59" value="" style="shape=tableRow;horizontal=0;startSize=0;swimlaneHead=0;swimlaneBody=0;top=0;left=0;bottom=0;right=0;collapsible=0;dropTarget=0;fillColor=none;points=[[0,0.5],[1,0.5]];portConstraint=eastwest;" parent="50" vertex="1">
                    <mxGeometry y="80" width="215" height="40" as="geometry"/>
                </mxCell>
                <mxCell id="74" value="firstName" style="shape=partialRectangle;html=1;whiteSpace=wrap;connectable=0;fillColor=none;top=0;left=0;bottom=0;right=0;overflow=hidden;" parent="59" vertex="1">
                    <mxGeometry width="108" height="40" as="geometry">
                        <mxRectangle width="108" height="40" as="alternateBounds"/>
                    </mxGeometry>
                </mxCell>
                <mxCell id="60" value="String" style="shape=partialRectangle;html=1;whiteSpace=wrap;connectable=0;fillColor=none;top=0;left=0;bottom=0;right=0;overflow=hidden;" parent="59" vertex="1">
                    <mxGeometry x="108" width="107" height="40" as="geometry">
                        <mxRectangle width="107" height="40" as="alternateBounds"/>
                    </mxGeometry>
                </mxCell>
                <mxCell id="78" style="shape=tableRow;horizontal=0;startSize=0;swimlaneHead=0;swimlaneBody=0;top=0;left=0;bottom=0;right=0;collapsible=0;dropTarget=0;fillColor=none;points=[[0,0.5],[1,0.5]];portConstraint=eastwest;" parent="50" vertex="1">
                    <mxGeometry y="120" width="215" height="40" as="geometry"/>
                </mxCell>
                <mxCell id="79" value="age" style="shape=partialRectangle;html=1;whiteSpace=wrap;connectable=0;fillColor=none;top=0;left=0;bottom=0;right=0;overflow=hidden;" parent="78" vertex="1">
                    <mxGeometry width="108" height="40" as="geometry">
                        <mxRectangle width="108" height="40" as="alternateBounds"/>
                    </mxGeometry>
                </mxCell>
                <mxCell id="80" value="Int" style="shape=partialRectangle;html=1;whiteSpace=wrap;connectable=0;fillColor=none;top=0;left=0;bottom=0;right=0;overflow=hidden;" parent="78" vertex="1">
                    <mxGeometry x="108" width="107" height="40" as="geometry">
                        <mxRectangle width="107" height="40" as="alternateBounds"/>
                    </mxGeometry>
                </mxCell>
                <mxCell id="81" style="shape=tableRow;horizontal=0;startSize=0;swimlaneHead=0;swimlaneBody=0;top=0;left=0;bottom=0;right=0;collapsible=0;dropTarget=0;fillColor=none;points=[[0,0.5],[1,0.5]];portConstraint=eastwest;" parent="50" vertex="1">
                    <mxGeometry y="160" width="215" height="40" as="geometry"/>
                </mxCell>
                <mxCell id="82" value="companyId" style="shape=partialRectangle;html=1;whiteSpace=wrap;connectable=0;fillColor=none;top=0;left=0;bottom=0;right=0;overflow=hidden;" parent="81" vertex="1">
                    <mxGeometry width="108" height="40" as="geometry">
                        <mxRectangle width="108" height="40" as="alternateBounds"/>
                    </mxGeometry>
                </mxCell>
                <mxCell id="83" value="Id" style="shape=partialRectangle;html=1;whiteSpace=wrap;connectable=0;fillColor=none;top=0;left=0;bottom=0;right=0;overflow=hidden;" parent="81" vertex="1">
                    <mxGeometry x="108" width="107" height="40" as="geometry">
                        <mxRectangle width="107" height="40" as="alternateBounds"/>
                    </mxGeometry>
                </mxCell>
                <mxCell id="84" value="" style="shape=table;html=1;whiteSpace=wrap;startSize=0;container=1;collapsible=0;childLayout=tableLayout;" parent="1" vertex="1">
                    <mxGeometry x="510" y="1310" width="215" height="200" as="geometry"/>
                </mxCell>
                <mxCell id="85" value="" style="shape=tableRow;horizontal=0;startSize=0;swimlaneHead=0;swimlaneBody=0;top=0;left=0;bottom=0;right=0;collapsible=0;dropTarget=0;fillColor=none;points=[[0,0.5],[1,0.5]];portConstraint=eastwest;" parent="84" vertex="1">
                    <mxGeometry width="215" height="40" as="geometry"/>
                </mxCell>
                <mxCell id="86" value="Property Name" style="shape=partialRectangle;html=1;whiteSpace=wrap;connectable=0;fillColor=none;top=0;left=0;bottom=0;right=0;overflow=hidden;" parent="85" vertex="1">
                    <mxGeometry width="108" height="40" as="geometry">
                        <mxRectangle width="108" height="40" as="alternateBounds"/>
                    </mxGeometry>
                </mxCell>
                <mxCell id="87" value="Type" style="shape=partialRectangle;html=1;whiteSpace=wrap;connectable=0;fillColor=none;top=0;left=0;bottom=0;right=0;overflow=hidden;" parent="85" vertex="1">
                    <mxGeometry x="108" width="107" height="40" as="geometry">
                        <mxRectangle width="107" height="40" as="alternateBounds"/>
                    </mxGeometry>
                </mxCell>
                <mxCell id="88" value="" style="shape=tableRow;horizontal=0;startSize=0;swimlaneHead=0;swimlaneBody=0;top=0;left=0;bottom=0;right=0;collapsible=0;dropTarget=0;fillColor=none;points=[[0,0.5],[1,0.5]];portConstraint=eastwest;" parent="84" vertex="1">
                    <mxGeometry y="40" width="215" height="40" as="geometry"/>
                </mxCell>
                <mxCell id="89" value="id" style="shape=partialRectangle;html=1;whiteSpace=wrap;connectable=0;fillColor=none;top=0;left=0;bottom=0;right=0;overflow=hidden;" parent="88" vertex="1">
                    <mxGeometry width="108" height="40" as="geometry">
                        <mxRectangle width="108" height="40" as="alternateBounds"/>
                    </mxGeometry>
                </mxCell>
                <mxCell id="90" value="ID" style="shape=partialRectangle;html=1;whiteSpace=wrap;connectable=0;fillColor=none;top=0;left=0;bottom=0;right=0;overflow=hidden;" parent="88" vertex="1">
                    <mxGeometry x="108" width="107" height="40" as="geometry">
                        <mxRectangle width="107" height="40" as="alternateBounds"/>
                    </mxGeometry>
                </mxCell>
                <mxCell id="91" value="" style="shape=tableRow;horizontal=0;startSize=0;swimlaneHead=0;swimlaneBody=0;top=0;left=0;bottom=0;right=0;collapsible=0;dropTarget=0;fillColor=none;points=[[0,0.5],[1,0.5]];portConstraint=eastwest;" parent="84" vertex="1">
                    <mxGeometry y="80" width="215" height="40" as="geometry"/>
                </mxCell>
                <mxCell id="92" value="firstName" style="shape=partialRectangle;html=1;whiteSpace=wrap;connectable=0;fillColor=none;top=0;left=0;bottom=0;right=0;overflow=hidden;" parent="91" vertex="1">
                    <mxGeometry width="108" height="40" as="geometry">
                        <mxRectangle width="108" height="40" as="alternateBounds"/>
                    </mxGeometry>
                </mxCell>
                <mxCell id="93" value="String" style="shape=partialRectangle;html=1;whiteSpace=wrap;connectable=0;fillColor=none;top=0;left=0;bottom=0;right=0;overflow=hidden;" parent="91" vertex="1">
                    <mxGeometry x="108" width="107" height="40" as="geometry">
                        <mxRectangle width="107" height="40" as="alternateBounds"/>
                    </mxGeometry>
                </mxCell>
                <mxCell id="94" style="shape=tableRow;horizontal=0;startSize=0;swimlaneHead=0;swimlaneBody=0;top=0;left=0;bottom=0;right=0;collapsible=0;dropTarget=0;fillColor=none;points=[[0,0.5],[1,0.5]];portConstraint=eastwest;" parent="84" vertex="1">
                    <mxGeometry y="120" width="215" height="40" as="geometry"/>
                </mxCell>
                <mxCell id="95" value="age" style="shape=partialRectangle;html=1;whiteSpace=wrap;connectable=0;fillColor=none;top=0;left=0;bottom=0;right=0;overflow=hidden;" parent="94" vertex="1">
                    <mxGeometry width="108" height="40" as="geometry">
                        <mxRectangle width="108" height="40" as="alternateBounds"/>
                    </mxGeometry>
                </mxCell>
                <mxCell id="96" value="Int" style="shape=partialRectangle;html=1;whiteSpace=wrap;connectable=0;fillColor=none;top=0;left=0;bottom=0;right=0;overflow=hidden;" parent="94" vertex="1">
                    <mxGeometry x="108" width="107" height="40" as="geometry">
                        <mxRectangle width="107" height="40" as="alternateBounds"/>
                    </mxGeometry>
                </mxCell>
                <mxCell id="97" style="shape=tableRow;horizontal=0;startSize=0;swimlaneHead=0;swimlaneBody=0;top=0;left=0;bottom=0;right=0;collapsible=0;dropTarget=0;fillColor=none;points=[[0,0.5],[1,0.5]];portConstraint=eastwest;" parent="84" vertex="1">
                    <mxGeometry y="160" width="215" height="40" as="geometry"/>
                </mxCell>
                <mxCell id="98" value="company" style="shape=partialRectangle;html=1;whiteSpace=wrap;connectable=0;fillColor=none;top=0;left=0;bottom=0;right=0;overflow=hidden;" parent="97" vertex="1">
                    <mxGeometry width="108" height="40" as="geometry">
                        <mxRectangle width="108" height="40" as="alternateBounds"/>
                    </mxGeometry>
                </mxCell>
                <mxCell id="99" value="Company" style="shape=partialRectangle;html=1;whiteSpace=wrap;connectable=0;fillColor=none;top=0;left=0;bottom=0;right=0;overflow=hidden;" parent="97" vertex="1">
                    <mxGeometry x="108" width="107" height="40" as="geometry">
                        <mxRectangle width="107" height="40" as="alternateBounds"/>
                    </mxGeometry>
                </mxCell>
                <mxCell id="100" value="User Model" style="text;html=1;strokeColor=none;fillColor=none;align=center;verticalAlign=middle;whiteSpace=wrap;rounded=0;" parent="1" vertex="1">
                    <mxGeometry x="193.75" y="1280" width="97.5" height="30" as="geometry"/>
                </mxCell>
                <mxCell id="101" value="User Type" style="text;html=1;strokeColor=none;fillColor=none;align=center;verticalAlign=middle;whiteSpace=wrap;rounded=0;" parent="1" vertex="1">
                    <mxGeometry x="568.75" y="1280" width="97.5" height="30" as="geometry"/>
                </mxCell>
                <mxCell id="102" style="edgeStyle=none;html=1;startArrow=none;" parent="1" source="107" target="88" edge="1">
                    <mxGeometry relative="1" as="geometry"/>
                </mxCell>
                <mxCell id="103" style="edgeStyle=none;html=1;entryX=0;entryY=0.5;entryDx=0;entryDy=0;startArrow=none;startFill=1;" parent="1" source="108" target="91" edge="1">
                    <mxGeometry relative="1" as="geometry"/>
                </mxCell>
                <mxCell id="104" style="edgeStyle=none;html=1;startArrow=none;startFill=1;" parent="1" source="110" target="94" edge="1">
                    <mxGeometry relative="1" as="geometry"/>
                </mxCell>
                <mxCell id="105" style="edgeStyle=none;html=1;startArrow=none;startFill=1;" parent="1" source="112" target="97" edge="1">
                    <mxGeometry relative="1" as="geometry"/>
                </mxCell>
                <mxCell id="106" value="" style="edgeStyle=none;html=1;endArrow=none;startArrow=classic;startFill=1;" parent="1" source="55" target="107" edge="1">
                    <mxGeometry relative="1" as="geometry">
                        <mxPoint x="350" y="1370" as="sourcePoint"/>
                        <mxPoint x="510" y="1370" as="targetPoint"/>
                    </mxGeometry>
                </mxCell>
                <mxCell id="107" value="same" style="text;html=1;strokeColor=none;fillColor=none;align=center;verticalAlign=middle;whiteSpace=wrap;rounded=0;" parent="1" vertex="1">
                    <mxGeometry x="395" y="1355" width="60" height="30" as="geometry"/>
                </mxCell>
                <mxCell id="109" value="" style="edgeStyle=none;html=1;entryX=0;entryY=0.5;entryDx=0;entryDy=0;startArrow=classic;startFill=1;endArrow=none;" parent="1" source="59" target="108" edge="1">
                    <mxGeometry relative="1" as="geometry">
                        <mxPoint x="350" y="1410" as="sourcePoint"/>
                        <mxPoint x="510" y="1410" as="targetPoint"/>
                    </mxGeometry>
                </mxCell>
                <mxCell id="108" value="same" style="text;html=1;strokeColor=none;fillColor=none;align=center;verticalAlign=middle;whiteSpace=wrap;rounded=0;" parent="1" vertex="1">
                    <mxGeometry x="400" y="1395" width="60" height="30" as="geometry"/>
                </mxCell>
                <mxCell id="111" value="" style="edgeStyle=none;html=1;startArrow=classic;startFill=1;endArrow=none;" parent="1" source="78" target="110" edge="1">
                    <mxGeometry relative="1" as="geometry">
                        <mxPoint x="350" y="1450" as="sourcePoint"/>
                        <mxPoint x="510" y="1450" as="targetPoint"/>
                    </mxGeometry>
                </mxCell>
                <mxCell id="110" value="same" style="text;html=1;strokeColor=none;fillColor=none;align=center;verticalAlign=middle;whiteSpace=wrap;rounded=0;" parent="1" vertex="1">
                    <mxGeometry x="395" y="1435" width="60" height="30" as="geometry"/>
                </mxCell>
                <mxCell id="113" value="" style="edgeStyle=none;html=1;startArrow=classic;startFill=1;endArrow=none;" parent="1" source="81" target="112" edge="1">
                    <mxGeometry relative="1" as="geometry">
                        <mxPoint x="350" y="1490" as="sourcePoint"/>
                        <mxPoint x="510" y="1490" as="targetPoint"/>
                    </mxGeometry>
                </mxCell>
                <mxCell id="112" value="different!" style="text;html=1;strokeColor=none;fillColor=none;align=center;verticalAlign=middle;whiteSpace=wrap;rounded=0;" parent="1" vertex="1">
                    <mxGeometry x="400" y="1475" width="60" height="30" as="geometry"/>
                </mxCell>
                <mxCell id="115" style="edgeStyle=none;html=1;entryX=0.5;entryY=1;entryDx=0;entryDy=0;startArrow=none;startFill=0;" parent="1" source="114" target="112" edge="1">
                    <mxGeometry relative="1" as="geometry"/>
                </mxCell>
                <mxCell id="114" value="resolve required" style="text;html=1;strokeColor=none;fillColor=none;align=center;verticalAlign=middle;whiteSpace=wrap;rounded=0;fontStyle=1" parent="1" vertex="1">
                    <mxGeometry x="467.5" y="1540" width="101.25" height="30" as="geometry"/>
                </mxCell>
                <mxCell id="116" value="" style="shape=image;verticalLabelPosition=bottom;labelBackgroundColor=default;verticalAlign=top;aspect=fixed;imageAspect=0;image=data:image/png,iVBORw0KGgoAAAANSUhEUgAAAiYAAAHZCAYAAACy4vAXAAABXGlDQ1BJQ0MgUHJvZmlsZQAAKJF1kL9LQgEQxz+WFYRhQ1RQg0Q4WZj9oFUtInAQS6i25/NXYK/H80W0NdQu1BItYUvQXC0N/QdFQUOEtPUHRC5lr3taqUV3HN8PX+6O46DFpeh6zgmsaaYRmwt5lpZXPB3PtDOAmymGFDWvB6PRiLTwrc1Rvsdh692IvevsY3OiJ9RVmuy79YbTp4d/+5uiM5nKq6LvUgFVN0xw+IWjm6Zu87ZwjyFHCe/bnKnxic2JGl9WexZjYeEb4W41qySFn4R9iQY/08BruQ316wb7eldKiy+I9koNMsMsEUkPcQJMMsa0ePwzM1GdCbOOzhYGq2TIYsp0UBydHCnheTRURvEJB/BLjdu//v3DurdehOlXaC3UvcQBXOxC/0PdGz4C9w6cX+uKofx81lF25tPjgRq7QtBWsqwXL3TsQaVgWW9Fy6ocy/5HuNI+Ad8zY253AYEpAAAAYmVYSWZNTQAqAAAACAACARIAAwAAAAEAAQAAh2kABAAAAAEAAAAmAAAAAAADkoYABwAAABIAAABQoAIABAAAAAEAAAImoAMABAAAAAEAAAHZAAAAAEFTQ0lJAAAAU2NyZWVuc2hvdLhC4YsAAAI9aVRYdFhNTDpjb20uYWRvYmUueG1wAAAAAAA8eDp4bXBtZXRhIHhtbG5zOng9ImFkb2JlOm5zOm1ldGEvIiB4OnhtcHRrPSJYTVAgQ29yZSA2LjAuMCI+CiAgIDxyZGY6UkRGIHhtbG5zOnJkZj0iaHR0cDovL3d3dy53My5vcmcvMTk5OS8wMi8yMi1yZGYtc3ludGF4LW5zIyI+CiAgICAgIDxyZGY6RGVzY3JpcHRpb24gcmRmOmFib3V0PSIiCiAgICAgICAgICAgIHhtbG5zOmV4aWY9Imh0dHA6Ly9ucy5hZG9iZS5jb20vZXhpZi8xLjAvIgogICAgICAgICAgICB4bWxuczp0aWZmPSJodHRwOi8vbnMuYWRvYmUuY29tL3RpZmYvMS4wLyI+CiAgICAgICAgIDxleGlmOlBpeGVsWURpbWVuc2lvbj40NzM8L2V4aWY6UGl4ZWxZRGltZW5zaW9uPgogICAgICAgICA8ZXhpZjpVc2VyQ29tbWVudD5TY3JlZW5zaG90PC9leGlmOlVzZXJDb21tZW50PgogICAgICAgICA8ZXhpZjpQaXhlbFhEaW1lbnNpb24+NTUwPC9leGlmOlBpeGVsWERpbWVuc2lvbj4KICAgICAgICAgPHRpZmY6T3JpZW50YXRpb24+MTwvdGlmZjpPcmllbnRhdGlvbj4KICAgICAgPC9yZGY6RGVzY3JpcHRpb24+CiAgIDwvcmRmOlJERj4KPC94OnhtcG1ldGE+CizFMFYAAEAASURBVHgB7F0HYBTV059AGgkBQoAACSSh9957lSIdKfpHRZBPbAh2RbCgInYQUQQRwYKAinRp0nvvJUBCgBBIICGkt+/93uVd9i53l7vk0mdg83r77d7u7My8WYdq1QPSiIkRYAQYAUaAEWAEGIECgIBjec8yBWAaPAVGgBFgBBgBRoARYASISjAIjAAjwAgwAowAI8AIFBQEmDEpKGeC58EIMAKMACPACDACLDHha4ARYAQYAUaAEWAECg4CjvXr1y84s+GZMAKMACPACDACjECxRsAhIiIirUSJEoTDwcFBfyhUkMfECDACjAAjwAgwAoxAXiDgmJaWRurQDsgMiRYNjjMCjAAjwAgwAoxAXiDgmJqaKqUkCCE1AYEpAbOiiNOMB18P/Hvg+4EOAb4f8v2Q74e5ez+UnIgCWYXqBsQhI8AIMAKMACPACDACeYlAJokJmBMlRcFEkIYkRcu0aONqsto8bZzLdQhoMdHGGR/GBwhorwltnK8Pvj74+uDfh/aeoI0X1ftDCSxSu1DEjUWVavEqRLkl4nLGh68P8wjw74N/H+avDp0qncvNI8C/n6L/+5GMCS4BxZwghMREm0ac0zqdmsKC8WA81O9GXROc1t1HGA++X/L9ke+PObkf6j2/am8m6JCJEWAEGAFGgBFgBBiBvEZA2pioHTlaLhcTUcyKClUeh4YSpuKMR0pKCoWG3qLbt2/TvchIinkQQ3Hx8VLqBlxKlihJLq4u5FHancp5elLFChXIx6eqVBcWZ9xM/dYYD/5d8XWRIWng30Px/T044uQzMQK2IhATE0N37twh4aCPypYtS9Wq+VKjRg1lN+XKlTPoLlIwLKDg4GCKj4+jo0ePkpeXF1WqVInc3NwM6nKCEWAEGAFGoHgj4HD9+vW0kiVLEg4YFZnyAJuVsVHxhrB4rT4hIYHENSMYknvk71+d/AICSIhHBAjQCooQvnCySEfevUtRUdEUFHSFvCpWJN+qVcnFxaV4AcmrZQQYAUaAETCJADMmJmHhTFMIQF0DqUf16oIh8fMzVcXmPPR37do12R8kKEyMACPACDACxRsBvUt62ApAaqJ0nMawIN+S5ITLizY+YCDCwsKoSZOmVK5cWc11gq1rOr2w7pqxLV29uh+VKVOGTp48SXFxcZLpMb72kM7N60td83x96zx6msIhN/HP7fNbWPrHPE1hX1jmb27u9po/42N+m3BR+306hISEsCoHVzyTWQSuXLlCiYlJgilpYraOPQrAnDg7O1GNGjXs0V2WfSQlJVFsbCzBXgYhE0mbH3d3dxk6OTlZDQkM6KOjo+URL4yfiyO5urqSh4eHPNTnPazBobhch4yPNVeD9XWyi6f1I+RfTb3ExHhnTv5NiUcuSAhAUpKQkEhNmzYRchEhFRKTE8Iz8WZnIhRlOSlv3KQxnRLMSVBQkN1URZawBDMCw1wfHx+2cUkHCjZEN27ckClIsqwlMCXFHcvsYldcrkPGx9pfk3X1soundb3nby3elZO/+Bfo0aG6uXnzFnXu3JFSUqCu0Ri5KmNXO4cNGzamXbt2kKtrKfL2zj2bE4g+8TCtUqUKQULApEPA0dFRYgJ7ImsZk+TkZLp37x5VFUbMxRlLhd3Nmzetxq44XYeMj33vMtnB074zyL3e9BIT/EDUkXvDcc+FBYH4+AS6ejWIGjduJCUkOqYEswdzAsq9sHHjJnT69Gl5c3cVPlByi+7fvy+2OVeT131ujVEY+8UOKWADRsMagm0a3vrRDveQ4kzAAFjYgkNxug4ZH/v+OrKDp31nkDu96T2/5k73RaPX8+cv0jvTP6QDBw8XjQVZsYqQkGtSxeFRxkM6S0tNS82zEHp6H18fwhxyk2x5eOTmPApi37ZiY2v9grhme83JVixsrW+veeZXP7au19b6+bWu/Bq3KOKjl5gAVCwwJ4u8fOUqnTlzjk6dOkNR96PJ17cq1atbh3r26Cp3/OTXiVPj3hKqiePHT1HNGgFUu3ZNlZ1l+OHMz+jgwSO0b/8B2vLvaoP6N27cpNNizafPnBUOx8KpQf161LBhfWrQoB6VEsZwxrR7z3568OABtWndksqX9zQuLhBpzA9r6dipo7go8F/YlqSJHRtmwhs3b5BPVR+z5ebaWcqvXq067dq9iypXrkylS5fOFVzU9Z6Taz5XJpbPnWYHl+y0yedl5srw2cEhO21yZfJ50Gl21pqdNnmwlAIxRFHFxi42JhD7vz9jJv319xqTJ6uytzd9+skH1LZtK5PleZV56tRZemnKG/R/E8bSK1NetHrYmsKJGBgTMFmKUlJSad73C2jutz+oLBn+vWqtDLHm7+Z9JRiVugblX371DZ05e54WL/qO2rdrY1BWUBK3boUJptKX0lLBOuhE85bChQsWSLuEYcOGC2arvFyGpfqoYE15Nd9qhLnUqpU7jImteMOWQhmGatt6Clf71tpjaNtlJ44dL7D9wfmBCgWErf4XLlyQc0B+YSHshgoPDyfoymGAbIpgB3RXOOSDh+CKwhkfU2YEYA906dIl+cIDHOvXr6+/NjLXLh458EgNlRpUtcaEFy+UQ1WJnWf4PeEahDdqpoKBgF5iAs4LpEJrp3df3DjGjnuWzoqHrZd4KD355GPUXOzgKO/lSVeuBNHSX5bRwUNH6ImnnqEVfyyhxo0aWNu13evp1wYpgA268Hemvk7Dhw+i+vXqynZ4EDz7/BTauWuvnONzE5+mZs2aCBfrFSQOa9f/S3v3HqChwx+jeXO/pB7du+jXokNZN74tc9B3kMsR7M66c+c2NWgI2xIxW5Pbb4zyxZxWr15N69atIzAnw4YNIzcYlFrb3kw93FT27dtHAQH+0iOxvZeO9WG9CHHAD4OlEC74X3vtNZPTgBv+N954Q8w1IMt+zI1z+PBhYddzlUaOHKmfxz///CNvmB07dpT9njlzhmbNmkUffPAB1a1bVxgn36RXX31VMifNmjWjN998M9vjq3lpcTG5WBOZCkeEqp+swoMHD9J3330ne/v+++8JDJ4x/rNnz5Y+bvAQ+eqrrzKVG9fP77TCAfOwllBX2y4r3FQ5dkHNnDlTOj3UjgVV6OTJk8UnInS/YVW/IITadWrnbCmeHXwWLlxIR44coWXLlmW6Hvfu3Usof+eddyRGn3zyiTTanjFjRpbXF14M0Cd+j7Vr186yfm5fj9nB0xLWBaUsxxKTJUt+lw/jasImYNGP8wihIqhMoMZ5+50PaNU/a+mr2d/SogXfquJCE5YsWYIaNcxgqFb9s04yJe7ubvTTj99Rk8a6b8RgQZCqDB40gD79/Gv6eclvNE3YprTf9A+VKlWqUKz33r1IwVSUFuoTD0oREhPBXaTPWxfqFDrIyshX92AwbCtWLBcMyloaOnQYDRVMSoY/B/PtdQOYLgeDgzl5eekkMemTydegXbt29NBDD8kbHt7mcQPEze7jjz+m+fPnZ/ttdf/+/QTmBIyJorVr1wqJUS15I0QepAYdOnQQTu503yPasmWLZEpwc4Xaq7DSf//9Jxla7fwhLYFvG6bMCMAZIZgPPCjHjBlDbdq0kb81MHu//vqrvBa//PJLsbPNO3NjzjFAAL8na332APcNGzZICTEYE6bcQSBHEpMIcVOeO0+nypglVDW+4quxxm8K4NJfmfKCZEwgRbh9+464uVagK2LHB9IdOrQlb+GKfM/e/bT/wCEa99Tjsp+YmFjasHETnb9wie5G3CUYYTZp0oj6PtRLcLe6D7+BW1z2x5/yod+7V3f6d/NWOnfuAsFhESQzXTp3FFKMzOJfPAKDg6/RmrUb5TzKiDcMqJn6PNRTPmwAdYro+8iRY3Tq9FnJbHXv1llevLgRfPnVXHk2pk97U45jvOYSJRzojdcm0/79h+jCxUtSajTh6bGyjf6PmIRxO31ZPkbu34/SzUsYuyoCXsrnIOLaNOootQziIIhQf/31F/EDXk9DhgylhwcMyKK9+f7LCl8amFNu2OMo/BFq41iDSqu4tg6YA4jLcW2D8PYEBuX8+fNC9XRLqrPwNgtGAdfLxYsXxe6mxrIu0pCKoL86depIETLikMZgdwaYu9DQUHlN4yYI9RHaIK+C+DIzDjAuUJlBBI18qHRgnY/rHtt2oVbSfhwR+ehfm29qfZigdp3aOnLyWfwx19ZUvjYPD4XNmzcLZnaoHneU79y5U46oHhraNsBJOIeU6wWOar2oA/UQnE/BNgkSJRC2haMMfnmioqLk2y6YZsTx8EYZyNz5UeXGIdogT5uvTaM8K1L1VYj6qj8VV2kVrlixQs4VzAkYZeTjeuzXr58cbsmSJfTvv//SE088oZ8fcMH6obKAyg/qC9U/rg/gDByDhB8h/IbBEAND9A2cgI36bISaB67zxMREvZpN5atQ9a/SCNUhB7fij6qvQtWnamou31w56mv76N69u8RO9YPnCn6z+D3iBUAxIFi/up7wO8NvD79x1S4rfIEtDvQBpht9q2tPzQn94veqVVuq/rVzVvVVnjYtF1fI/+RIYrJ79z65fDABzYUqwxxVqOBFq/9eJgFXN5ATJ07TRzM/p/fffZtWr90gmQC0HzlimNDjh9KoR8cSGB8tLV/xN/0hGJGlPy8QN2Jn0V8yzfjoU1nlx5+W0OXLV/XVURcMzPfffk2tWjXX5yMCJmjBwsUGecuW/0mjRw6nd6e/KfOff+EVOnzkqPAKqvMI+uknM2jggL6SUcG8oLbq37e3QR/aBG4SE55+kl59/R3auGmriI/VFhfYeLTQv/r6+FIqfrz4/UqPaSKaHppLm1oQHtaLFv2oZ1B69uxldX9qvNKCabwhPhqYW5TVDxrligExNQdVjhs2GBPcvLZv306LFy+mKVOmSPUD2v3++++CUd1P33zzjWQ+VF/qwYIQD1sQ4t26dZP9IH327FnZ13vvvSfd9itVDkTPuImBMNbgwYMJqh946H3rrbdkPuaHB/wPP/xA06dPlwyVLEj/o+avzbNn3Jr+e/bsSRs3bqTAwECqWTPDKH3Tpk1SNQYGTUtgSD766CPp0E3l9+nTh5566imZBBY9evSQ5wMP4kceeYRatGgh1V84P4rA0Fy+fFlKGJBn6fyoNsahNeszbmNL2lz/27Ztk0xq27ZtM3UH5gSMKw60h03FF198IfFQlXEffv3116U6ENf3+++/LxkMMBlajKCWBSP8119/SUbn008/NfhsBNSIuPZxPkyRufmbqpudvKz6t6b8ww8/1KtywOxPmzZNMg5qPlCNQWW2a9cu8fz5Q2b//fffhAO/a2vwffnllwnX+blz5yRzCKYP17sxnlAVa/G0Zv5qnkUpLIGFZ/cIDg6RWHTq2D7LPmrVqiFuinUFx1hKVzddFQCVByQTw4cNohnvvyMMkirTZ1/MlkxJj+5dafmyn+nwge207NdF4ofmKRkD7IBRc1YnA0wJmJz/tq6jNav+kP2BqZj4/GTJ+Wrrwx6mZYtm0uZlu6j/XjozAuYEu2xQ99tvPqdD+7eLG2WAHCJUvAkjPyhIt4UVEhb1bSHVt3HYrKnuLRnj4aGD8vRlSymDcf2CkI6NjcuYG2K4PrII9YtSJ8MoxJvFd9/NE7YQL8sfd1b9GZfHigdTXmCj9LXGoXZsLE2lUQ+MwfHjx2nPnj1y1eoNCok5c+YI53SdJdOAt6Svv/5aMgawm8CDAjcn5EHKAiYDNgG4pnCjHD58uAzxAMHDGnkBAQG6ayh9Dshr3lzHdCP+8MMPCya8lVR/wLBUrQNqEkhL6tWrJ9urfBVq14O4cb4qzypU7YxD1c5UPnCCGgLrhtREjQ+GArj07p3B/KM98AZWIITz5s0jMCWQDuBhjfYgpGHg+OSTT0qJwrvvvitVHXjofPvttxIrvBWD0Car86PmZSpEnjZfpW0NjfFRadWPSkOaAeYBUjtVhlCVIw5McX0hDjseMM2jR4+W8bfffluuG8wErhPUAUFCAGYN1yaOBg0aSIbk0KFD1LdvX1kHGKtxYHCNhzLw146vylWIMm25Stsaqv6MQ9WPNl9OVvxZtWqVZCC0IVSvINVOJsQftAezAWkG7E9++ukn+dtFGvl4WQAzBwIeUJ+iD2vxBfOtrslRo0bJftQ1i34UnlATI63Wo+ap0sahKi9KYY4kJleDgiW4VatWkaH6A+Demvq+ShqEo0cNN5CugHn4+ouZQmffU1/vglDfQNrx5htTpFoHBVDj9O/3EP3y6x90/foNatG8qb4+ImBqwNyAvIX6Bunw8AjasXMPLVv+F00Y/6Qswx/0Pe/bL8kjfRsqpDQb/t1CBw4cpuBrIYI5qqK3jUgU7thBdWrXkmGw+BIuCGqrrEjrufSOmAvmVdApUbgkxxsCziHIQRy4bRmHKAPJfN19TZdh4S9ExLO//oo2blhPgwYPkQ9R435VWnUDNRvmlJuEH7QlMi6H3QcefCAlsUD8sccekyoExEF4Qxo7dqyMw9gOD99XXnlF7/4exrITJkwgSAZgJ1C2bFkpTlffCoLIHeJ2MBUqT3aW/gfGwWiDflV5//79pZ0KbF569eolb7LYsYE3X3NkvD5z9bKbn1X/WCMYOLyRjh8/Xq4ZtjNYV/v27aUUSI2NhwoeoGAwlHQFzAdsUdavXy8fHqru559/LrEDFjhPL7zwgl5i9L///U/iBPE75gfD7azOj+rXOMxqfcb1bU0b94+HGwjXBci4XGam/wFWR48elYzKoEG6+yOumeeff54+++wz2rFjh179A1UOrk+lOoM0BNcnDNshUQFjDOnb448/LqWIiAMzqJIskaX5WWpnbZml/pWEw9q+lHQUTDFUOK1bt5YG787OzvK35u/vL7vCCwi+sm4LvmiorknEzeGJa15LltanrVeU4jmyMYH+G4RQCx7ia4R6xhS1bdOKpCQh/WHQSKiBevfuYdB+3ZoV+qZRUfcJDBD8o/y9SrcdGU0xhnbM/v11XKa+oYg8OvoRyZgcO3bSoD4McksLo0pt+6aNG0nGJDr6gT4fjE2IYIJAmDPqu6Ubsaq3eFlo5s+DBzH6ErTTjad7CCKuHV9fMZ8jkiHRPKdV1DhU01T5Km1NiDeDzz6dJd60+tK4ceNlE9WPClU/SKs3BJVnr1B7DrTnAjcnU2mV5+fnp7cZwVygK27YsKG8Uak6yMfDFmn0B6YMUrOnn34aRQZ0TTC72nYoNJdW+QhVXFsfO3UwH7yJgTHCQxkE1Yaqb259smL6H+P+tWWm4qo+wqz6V+VqPugPc4UKDMabUE/ggYmHAh4IilAfkhQQDI21BGzxkFR9Agcw2EhD9QOCNABpNT7SYExAtpwf1V42FH+0aTW+ClWdrELUV220/aGdcVptawWDgjbG5UhDigeGT9mRQL2n7R/XKwjXHghlYG5VfaRht4SHJySeSIPphbQJ6ghI3yAlxEMUjIzqG32Zmo8qNw5R3xpCO9XWUv/oS1sOQ2BtGuVbt24VKuZFsj/VJ/IRHyDs4cDI4UUCB5h/MF6QkGjnoOorm5Os8EV9dU2qtvmJJ+ZQkClHEpPatWvSlq3bKUgYkmoJRmWbN/6jzaLv5i806edEu6NFNYgQxq4/L/2d/hW2GZCOZEW+vj7kKn5ExlRVGLyBgtIlO6pca1ik8kyFx4/rdgTAF0kZYXwL8vOrLkOlxpIJM3+UdAWSk9KlxfbZQkDiNiceoEJaokQX2lDNH9yCJl/741ZVLIVdunQjvL1VFU7ZYGSsF8moRpn6x2C5R8bzzyoNQ9ZHH33U7IRUe2x/BSGNGz5u4BCnG5N60Kh81V6lbQ1xE8WWRtj44AGPG6KaC/oy7j+rtK3jZ9WfqXJIP2ATAXUOcIKEQ6vGUXNQb/NDhgzRG7yqMjyAFGkxBcMCUtItNb6yXUE6J+dH9afGNk6rfHOhcf2s0mAYYNwLKZFiyLR940URtgtgPkaMGCGLtH0iriSiWLcqQ18glUZc1UMc6iHYKkE1CII6SakdZEb6H217ZGWV1rY1Fc+qva3lpsZQeTCSBvOFl6cTJ05IuyMYGkOdZcqORu061M4BcYWbFl91Taq6+YWnWmtBDnMkMalVs4Zc20ahBpk86Vm9CBCZVap4G6wbnkRBOCm6Q1dcQYir1YlCDi72p8Y/R/Ai21Sob8Y+8Zi08/CrXo3+Wb2OZn/zPXrR94M20Llq+0AeKD5dBaAsy9EOJJ+pYh5aUik1P5QdPHxUVmnfvo2+/xoB/jJv1+69FCZ2GFUSO4y0FBp6S1hqe0sufVe6cXBD4QXWeH7acbTt8zvu5OgkvPZGCkYM21HBNJQwCB3ER/vEz84o37pZt23bjgYOHEwBNfxFA1P9CB8YRvn3ox6I6yrjTdi6kayrpc6B8bkx11rVU+3M1VP52je1gIAAaekPaQAkGiDo92Fv0rVrV4PrQ42j+kGo8rShimvLEe/WrZtkTKBXDxKSmhdffFHfHuVZEfpVR1Z1Vbmqr52TKssqVG2helq+fLnEBb9ZMFTa/hCHtAoER2K4sSvCAxMfEFT18cBQcdXmwIEDerUF7jPHjh2TzVHPlvOjxjQVoi91mCo3lafqI7SWwBBAxQK1olLRqLZQaYFg8Ku+dwTDXuw+UYQHLQjYqHGxWwz2FMAehPvqlStX9LYsYPBwbUEaByYGjCSkLKq9bJTFn+ysNTtt1DRMzU3lqX61dX/88UcpaYPBL6RCsAWBdA4G6Piar3FbW/DVXpMYM7/wVOstyCGeOtmmrl06SoPUsLDbJqUhqmOoYdRDWuWpsITwEaIluHcHU1KnTi1asng+wSaldasWcttvZGSUtqo+fvfuPbEFM1ifVpFj6RIPf//qKsumcI9wHw+CoawizAuMCmjxz7+qbBlCMjNEOFV7/c3p4iEUSN/OWyDzHxk+2KBeQU6UKuUiuH1xc01NMRmmmsgXtS0uqalw/PXOO9PohRcnkb+/n8l+1Xim+nctJD5gLIEAw1QQjDBhJwFRO/xM4M0MRq8gSAPwwMSNX3mYRR4eGLt37zbYKSAbmPmDBwseShBZoz0MYgsDgUEDXRe7sKDaMUVNmzaV211hcIj1Qa2wePFiafug1BPG7YAFHqIQ62PXEmwjsENJSQhQ35rzY9xvfqbBjOA8g5HDGz4YDWDx888/S6YUUmEwejCeBq5wzAfmDdcbpFKIowzqRkXAQ3t9KiNjSKcUgSFCPTA6piRaql5hDbErCQzfmjVrJFOP3ynUXcAaakUlscNvGM4fbcHXFCZFHU9Ta7YmT0pMUBGcoHrDszaEOHHqW6/SK69Nldt2IUkd8chQg37gB+S1N6Zp5qIeYulh+luCGh9qHBC24yqdMeYDxmPlXzr1UHJy+g4XTa+zxO4eGNFCzIn6N4XkYv4Pi2SNvn166Tld1USNp0KBgCxCGgRmR6mosJtI1UM4ZdJz4qI8SEuEugmiOkiLMCacqFUXkp0NGzfLA/3ANwr8qejbIxOkX77tuFt7frJTDwZ194XPAhidymlK8ZKYrnEoSzPy05MGQb169WnAwIFC8iUMlWV7wcKofoza6/ONykOuh1B5Ex5B9Xhm47pVuKAPdRhM3IoE2pkjVabGQT2oUqZOnSq3C8ODKQgGdM8884w0YkQb6LKht4f+Gz49YLCKt9yVK1cSPKPC4BN9KlJzN34TQzlueNCV48Fjqlz1YSpU/aIMcbWOrEJtO1P9WspDW7VzCDtIsG7kaUmlgQN2PGHXBAgPDdgGgGlRddRcVXsYb86dO1c4AFwhs6A6gv8Z2LSgjTXnR/VlKURf6lBzyCpU9RFaS7jPgbEFg4YHJA5FYMTGjRunP+9jx46V91IwvGDKQDDcfOmll+T9S42Lt3/MVV2feAjDJgq7c1QdZfSJh7WxpE+NbynUrjUrXFS5to2lvrVluOZBat7aMm0c5dpx4PcFdkcwmlWGs5BwAivUBSMCBhhfP8eB36y1+KpxtOPnB55qHgU5zJGNCQDu3as7TXphIs2Z+z198OGnwjZkmfhAXQtpXHr+4iX5AEc9fBdm3/6DiFok9W0Z1H1pypvCk2ptuhZy3cCY9q+/VwsRor/Bt2vgU2XI8P9R966dpApn/YZN0gcJpC2Q7NhK+EaLom3bdkoJTt06tQXz4So/0Dfzo3flzqNFPy2VzuPatW1NVatUzmTr0rmToYW16nPq9BlUUTjLEj8dcaQ/jdPDpsLQ9s3Xp6iqeRrizfLipUCqqr5dou6VxqGalcpXaREGBNSQTtVat9ZJlvQ+UVDHuL5KG4fp/UF6gzkVBIJ/gaVLl2Y5FTAFOIwJomG83WKLJXTQaleFqocbHpgSLcE3CQ4taeeABwcOY4J9CQhvzQWVwDRp39gxTzBvxoSdDFqCrl753cCuCDid05IxhpBCwWcEduUAc2CPFwpITbTXVlbnRztGQYjjRQj+MbAeGGFCkgEbCa3BMOaJtcLHCx6gcKSGXTlgbIwJzBk+aQCnaehL2UQY10M57KxgXFxQCYyEOYIhOA5F2ParCIwHtgrD/gjOzqAeBF5aAkZasgZf42tS274w4Kmdb17EDWxMFHepDRHXHmpSqg7ScCSG7btffj2XTp46Iyznr6lqcpvthzOmiTfw0tT34eGiLx0Xq9qrtzk1ho/YhvvRjOn08Sef09Zt2+WBzkaNHCbVOkMF8wEVzblz5wmMAgjGr+PGjqEvxAfylortxCBsCf7fYyNp8kvPyTT6L+GQzkWLHDV+Riir6aU0tWrVkP3C+BZO3OChdtbH7wujM90P+uH+feT4n30xRzJcYIQUYWz4doHx7jvCJf1d4VIdtjIYq2Q6Jw/1Fw5ThBtOxrx0T2ykVR7aqLg2VPGclHt5lacHx6IxgAmWyZiFUmndHGHMCpF4x06d0wUk4m0EcxVHdsIo8dCJeRAtHjxeBvrdnKwPbUEKK4QqrivJ/b+42YFyY1y87WG3Boxf8VYMD5+2jqPqIzQV185dlas8bRp5uUl4o8fDM6sx8eCGLQ/sISZOnCglm5AeQEUGqZRx+5ycH9WXqVDlARMV14YqbitmePPVfgTRUj/K8N9cHeSrB7FxHWw7h8EtmEH8zo3LrZm3amMqVHn2xseaeRnXgTYATJ52LsZ1TKWzwlfbxt542oKfqqsNVVy7ZpWHUMXzotxAYoIL3BIp0Y+pOi1aNKVfly4UD5BEYTB1Ve62gG2Hu+BAVbtTx/fpFzd40MM0ZPAAfRp9qnqDBvajvn16igf3HYINSpV0Y1KU7929WTysYqRbe6h0FMGOY9jQgUIfeJ1KOpYkH+GLRKmCVJ1uwq38yWN79eOofISTXniGXnpxon4+4ILXrV4u1TmQbGBXjZqfaoddSfO/+1q+sUDtc+dOOMGYt1o1H/nW8tijI2jKK2/p+0T73375Ud+P6s9cqMZRoaqn0sahPcqxcwG7mSCqrSo8wDqIf2BRMhiLzGlwHmPGPEHdewiX/uJfitjVY6l+Vv2pcrxJ4OagdlPYY33aH5cxfkUhje3BUP3g2ocfCntSVvjbcyx79gVGHwwJDBuVgyz0j2+kQAWUV1TQ8cP8LBGMQCFJgQE31Dv2poKOj73Xa288s8KvMJU7CGOoNNzEILlAiMnjACk9nVqQykcZbvD5nU4UD9HWbbuJt8KqgolYke/zMYVHpLDXwPdeQKbKZYH4UxDwVPMDw7djxy6x60G4u87gMMQksQhM1jBMiE8gF0iSjPJzmj4odlF07dpZiKJ1u3LU/MTodsELtgy4wSqDNvRb2AlqC0hNoN7AW192CIwgdiHAs6iirK5PGF4WdCzxUIXjLIT4RokpdYZab3ZDhR3UQtZerwUBO2wxxnzxDDBHt2/rJLxQaWaXCis+2V2vpXb5hSfmlNXvOb/LDSQmlkDksuwhUC5dP4kTXVgInw3ApwFCrl/LEBGr6ZsInZwdhdQoXXplolyu28b8G0KFVtWnsjA2KyW/4VFYsMvveYIZgfqGKTMCeOhqVR6ZaxTfHEiIs6KcMCRZ9V0cyxlP82c9k40JHqBKUqJ9mKo4QnDWKq26Vuk8LRcPO3w/B2+H+TK+WrwIi9L42K/fqFFDYSOzRbjt9xBfdi5jJCiBagcqHZMCFJGfs/L796MoVBjz9enTW9qWAObcwBd9qgNjMOkQUJgozJGr4gjN/f5Vu+KMo8JA4aWwUGmExviZa6PaFqXQ3FoZn+ydZWM8kTa+vtCzJXwLYnkmNhmLskQFqdzZ2Yn+27JWTlcBX5DmZwrHwjS/5s2aCp8bR4VrcOFgLl2FkxEKtgT/M+WLVcv87JdDtN2iRXNT8MkfncmC9Exb8IUoH6qPoqTKsYSNtWXAxJyawxS+6mbIWOocRJrCSGFvqqw4XYe4RkxhwPgoBGwLjfG0hC16LizlDkLPnqbsSxBi4trDmsXYBiXXLiwIwD/EqVOnpYdb6MzzgmD3gY8dNm7cSG6rzc0xsbsA9hgQ72fXHiM355cffeNGB+du2O2idmdYM48oYUuFLcrwhVFcsQR22LYL7Iy3glvCsLhch4yPpavA9rLs4mn7SHnfghmTvMe8UI0I3wb79h8QD51IqiuYE2y4Fg7p9WTP9AXBlHiVLyecFrWVPgT0g+RSBA9QGKCBOYH6iomkpASqUei/ceOzluD/AR97Ux98s7ZdUaqHFzrsIsMBd+7WUnG5Dhkfa68I6+plF0/res/fWg5CbM4Sk/w9BwV+dLwBHjp8hAIvXaa69esJ53keJF3CgEMRnEmaCHOSvh8VLVz4n6dawhtn69YtpR+OvAIFPivwYMCPnEmcS6GjBkOC7/jYSsUdS8bO8hXD+FjGx9bSnOBp61h5XZ8Zk7xGvJCOBw+ZlwIvC5uTY9KVOpypSWMSI7NYc+aw5vJv3gwVWzhvUsuWLah2rZpSHZAfECmD7/wYuyCNCWdkOaXiiiVjZ/nKYXws42NrqT3wtHXMvKrvIPwVGEhM1E0Fb5DqLVKFeTUpHqdgIqBz551GBw4eopCQ68KewEe6pc6Oa2ro4m/evCGc0flS2zatxU4wB+lRsmCunGfFCDACjAAjkFcIMGOSV0gXkXHwHQ4YRcLQ8fSZsxQiPO3CvgBUJf0jYDCaVQSmFsZ9UJTgk+rR4jsxMTEP5McOGzVsIL9VAsNJfNWTiRFgBBgBRoARcBCfw2aJCV8HNiMAN99gQMCowOAR7uNhlwAjUnjWhP4TBMYEjq2wJRI2CPhSJ4wDwYjgY3b4WBYTI8AIMAKMACOgEMjkx0QVcMgIWEIADAUOeIyExAQ2KGBSzHmQhMtrMCMwrAwLCyOkmRgBRoARYAQYAWMETHp+Na7EaUbAHAL49gUOqGkUKX84SENyUpSNtNSaOWQEGAFGgBGwDwIsMbEPjtyLBgFmRDRgcJQRYAQYAUbAJgRYYmITXFyZEWAEGAFGgBFgBHITATjuZGIEGAFGgBFgBBgBRqBAIMASkwJxGngSjAAjwAgwAowAIwAEWGLC1wEjwAgwAowAI8AIFBgEHCMiIoTXzRLS1wR8Tmh3VCiPryosMLPmiTACjAAjwAgwAoxAkUTAQfiUyORgDYyIOrDq/GZMrl27RnXr1i2SJ4AXxQgwAowAI8AIFBcEAgMDpaNNS+tlVY4ldLiMEWAEGAFGgBFgBPIUAWZM8hRuHowRYAQYAUaAEWAELCHAjIkldLiMEWAEGAFGgBFgBPIUAWZM8hRuHowRYAQYAUaAEWAELCHAjIkldLiMEWAEGAFGgBFgBPIUAWZM8hRuHowRYAQYAUaAEWAELCHAjIkldLiMEWAEGAFGgBFgBPIUAWZM8hRuHowRYAQYAUaAEWAELCHAjIkldLiMEWAEGAFGgBFgBPIUAWZM8hRuHowRYAQYAUaAEWAELCHAjIkldLiMEWAEGAFGgBFgBPIUAWZM8hRuHowRYAQYAUaAEWAELCHAjIkldLiMEWAEGAFGgBFgBPIUAWZM8hRuHowRYAQYAUaAEWAELCHAjIkldLiMEWAEGAFGgBFgBPIUAWZM8hRuHowRYAQYAUaAEWAELCHAjIkldLiMEWAEGAFGgBFgBPIUAWZM8hRuHowRYAQYAUaAEWAELCHAjIkldLiMEWAEGAFGgBFgBPIUAWZM8hRuHowRYAQYAUaAEWAELCHAjIkldLiMEWAEGAFGgBFgBPIUAWZM8hRuHowRYAQYAUaAEWAELCHAjIkldLiMEWAEGAFGgBFgBPIUAcc8HS0XB7t+/Tpt3LiR7ty5Q4mJiTR16lRydCwyy8tF5LhrRoARYAQYAUag4CCQK0/u8PBw2rBhA8XExFCHDh2oSZMmubri1NRUmjx5MiUlJVG9evWoYsWK5ODgkKtjcueMACPACDACjAAjYH8E7M6Y7N27l06ePJmnjEFgYCDFx8fTiy++SH369LE/StwjI8AIMAKMACPACOQJAna3MQkJCaGAgAAaMmRIniwAg5QvX16OFRcXl2dj8kCMACPACDACjAAjYH8E7C4xGTVqlJxlVFSU/WdrpscKFSqQs7MzXbhwwUwNzmYEGAFGgBFgBBiBwoCA3RkTWxd9/vx5OnPmjEEz2IcMHDiQnJycDPItJVA3OjraUhUuYwQYAUaAEWAEGIEChkBaWhpt3ryZkpOT5czynTHx8fGh7du3G8AECYg1TAlUN5cvX6Zt27ZJQ9vu3bsb9MMJRoARYAQYAUaAESjYCEAYgWd+WFiYnGi+MyYeHh7k5+dHwcHBeuS6dOmij1uK7N69m2bPni2rtG7dmnr27GmpOpcxAowAI8AIMAKMQAFEoE2bNgS3HyC7G79mZ72dOnXSN4O0pFKlSvq0pUjXrl3pm2++oaFDh9KhQ4fkFmVL9bmMEWAEGAFGgBFgBAoeAu7u7uTr6ysnViAYEyU1wYyslZagLgxesQNo/PjxhD4gQWFiBBgBRoARYAQYgcKHAKQmILurckJDQ6VPkQcPHsgB4Gzt6tWrVKJECamykZkm/kBqkpCQYLW0xLgLtPX09DTO5jQjwAgwAowAI8AIFAIEIDWpVq2a/RmTLVu2SENUhcHFixcJB4xbnnnmGZWdKYTEY/DgwZnyrcm4ffu2dENfu3Zta6pzHUaAEWAEGAFGgBEogAjARMPuEpPHH38820vNrhv5yMhIOaaLi0u2x+aGjAAjwAgwAowAI5C/CIAPsDtjkh9LgqQEIqC5c+fSunXrCAa0/BG//DgTPCYjwAgwAowAI5AzBIoEYwIOa86cOfTff/+RUuvkDBZuzQgwAowAI8AIMAL5gUCRYEwAnLe3N40ePTo/MOQxGQFGgBFgBBgBRsBOCBSI7cJ2Wgt3wwgwAowAI8AIMAKFHAFmTAr5CeTpMwKMACPACDACRQkBZkyK0tnktTACjAAjwAgwAoUcgVyxMYGzM3yMJzY2lry8vOQumexuBS7k+Oqn/9vWs0RpumTFcm7Uu5W/vowjeYsA/Ops2rSJ+vTpQ1rfN4E7wyj0TBR1frZOlhNKTUmjYyuDqXpLL6pYyyPL+tZWiNp1iRKCI6j8gCYUdzFMHp79GpGTV2lru6C4S2EUfeAqebT2JwcXJ7q/+xKVbuFHbg2qyD5WrFhBqamp1K5dO4tOD60dEF/1xm44fOciJiaGxowZQzVr1rS2OddjBBgBRsAAAbszJmvWrKEbN24YDFK2bFkaPny4dCFvUFCMEr9vPUcpqWkUdCuSalb1ZMYkH849vkT98ccfS6YZnzPo1auXwSxOrAqh0+tuUJsxAeTi4WRQZpxITUqltdNP0MAZzezLmGy/QPc2nqaynWvT/T2BFL7yCJVpV8OAMUmJjqcbX26ie5vOkudDDaj6u4MMphd/NZxCv9tOJVx7k3OVsjJe9YUeesYEO9c2bNhAS5cupc6dO9Prr78uHSAadGJD4osvvqDDhw+Tv7+/9NpozZfBbeieqzICjEAxQ8DujAn8ifTu3VvepJKSkmjr1q0UEhJCZ8+epWbNmhUzeDOWu+bj4TLxynf/0cWQuxkFHMsTBKKioujtt9+Wn9Z+8803qX379lSyZEmDscFk9Hy5QZZMiUEjOyfASICcKnnIQxcvI/Pw58HhILry2kpKS0zW5xlHnCub6MM7o4/nn39e7mBbvXo1/fnnn4QXh4kTJxp3Y3UaTEnHjh3prbfesroNV2QEGAFGwBwCdrcx6dGjhxTj4qbv6upKLVu2lGNDvVMYKCY+idLSVS6m5puckkqhEbrvAJkqR97te7EUl2D+wWGuncrHGDfuREsJi8ozDu/du0fJydkfA/0lC3H+5btRFJOYZNy9TKvyxJQUk+WA6faDOH3Zzfsx+rhxJDgyWo5nnK/SCckphMMShT0QuCbZvuYUMf/p06fLbzhBYoLvMhkzJRjX2d2Ryvm6WZqCLEuKS6GUZPMXSU7ODZgKh5IlqEQpZ3KupGMmSpZx1c8p+nCwUMtUp3q/TSDHsqVEvoO+TEWcK+vaOYn2ThV1aiYwOlqCivWpp56iQYMG0dq1a2nbtm3aYpvi+JwE1LZMjAAjwAjYAwG7S0yMJ3XgwAGZVadO1np747Z5lY6KSaDZfx6hTYev0rWw+/phjy98SjApadR8wmL64ZW+dDU0kr75+wg9iEuiDo18aOGrfam0eIDM/HU/bT9+jRa+1pdenLOFjgodP+j7KQ9R/3bW69rBkMxYspdW7DgvxyhdyonmTX6IujWrLvtTf06fPk14669SpQotWLBAZVsdgtGYvuUgLT12Qd/Gs5QLrXysL9Wr6CkZiKmbDtAvxzPKB9bzp68e7kSlnBypzbwVNKJxLVp97ipduXufvhnYhf4+c5m2XblBqPf9kG7U6tsV1NGvMvWuVY1eXr9HMj/uzk70pxijcWUv/bh/n71C3x84TafD7urz/tesDn3atwPN2nmU5u0/TTv/byiNWb5ZjoVKH/ZuS0+1rE9vbNxLy04G0t6Jw8mnjLu+/aHrt2nIL+tpyYhe1LOmL+3Zs4egxnnppZeoenVDLNFo+aRDdO7fm7K9ZzV3mrTFUMWjOj6yLIhO/BNCIUcz5qrKVJjTc+NWvwp5DdZJFl1re5PXEEMpY5WJXdVQ6WFmBsmxggeV7VpHqnEcy5SScRdf0x+4fPrpp+n48ePSazJeKrJDdevWpQsXMq6V7PTBbRgBRoARUAjYXWKiOkZ48OBBwteGITUpqF/+BTMwSTATy7adpecGNafVHw2nZwc3l8sAU6IMVr9acYh+WHeCXh3Zhh5/qCHtPX2DFq47Keslijf9kDv36ZH3/qFKnm70xbPdqYowVpz41SYC02MtzVi6l37aeIqmjukg59FcPJie+3oT3TfqQ0mfVGht/6repDW7JFPyfLvGtHX8YFo0vAcNqh9AJYQHXdBH249IpuS1zs1p1/8No/d7taE154PodcEIgJKEpOU7wUxUdC9FVTzc6dUNe+j07bvUvnpl2n5V94BPEszP1svX6ZlV26l/XT96qUNTyZw8t3qH7AN/tonyF1bvJCchXVv8SE9aOrI3uTiW1EtFksS5gdSmz09ryE0wRN8O6iIZp3c2HyAwV8+3ayLLPxUMjJbmHzxNYIK61fCR2ceOHZNh9+7dtdX08a7P16Unl3Skhv18KDHWtETm6IpgWvvuCarSoCyN+70zPTa/nb69NqLOiQq1ZdbEXWtWJJ9XHpJVXf29yFcwu7aSQwkH8v94mE6iIk6pjAuDa1OEr3737dtXfgQTxqvZIdiUsMQkO8hxG0aAEQACeNZiQ8L69evlkWsSk1OnTtHRo0cpICCAWrduXWDRXy0MDP8T0o5vJvWiwR11Xye+djtDaqImfu5aBG3+fBTVrVaewMws3XSG9p25QZMfaSWrQIrSr21NyZQg435sIr3/8x46J3ZYtGtQVXVjNrwrDBp/2nCKxvZtRP/r1UDWmzy8FQ1/dxXtEeP0a1ND3xaM3nfffSd3O+kzrYxcCI+UTMboJrXp7W46NRukJH1q6yQJYAR+OHiG/D3L0OSOTWWvNco3kNKRv85cofd6ttGP9ItgJF4V0pB/hOTkx2E96HhoOB29eUdffi8uQTI1T7fSrWfH1RuyDpgKZ8GMTPxnB3m4ONPqx/vrmSLkG1OdCmVp1RhdnVihynltw166FR1H1cuVpn51qtPK05fpra4tqbKHG92Ni6cNF6/RpA5NqGQ6owWJgI+PDzk6mr7cvevqVB+Xd9+moIPGoxPF30+iNe8cp7o9K1O/aU1kheR402qnnJybzCPnTU79+vXlQCdOnCBfX1+rBoV6LCgoSP7G8QICGxMmRoARYASygwB27eIFB7t5Qabv1NnpWdMGYl2IzyE2x5bMgkyHL96S0zNWlxjP+b0nO0qmBPmOwgagvWA2ogUzoghql4/Gd1ZJauhfQcZjhc2KNXQ8Xf2zZt9lOnxBd3JSBAMECg3PbNNSrVo1a7rNVOdYOuMACYkpgmoGBBWMlsC4HLlxhy4KxgY0RqhbIMUoKd7Oa3mVpRZVK9LJWxHaJtRc5CmmBAUtfSpKxuSBsGl5kBAnJSiPNq2tZ0oMGmsSS0f01tcp56r7gnRcun3NG4IhASPy+e5j9Hm/jnr11Dih6gGBE79z5440dtV0aVP05mndmhv0zZrBRMfZPTc2TcqOldV8r1y5YnWvsKOBagwEG5NJkyZZ3ZYrMgKMACNgjECbNm2kywHk250xwVZEfEyvcuXK1L9/f+OxC1z6eOBtalqzEpV11z3wMMF7QnphTN7lM2wYUHZDGMB2aZLx8K5Uzp1cnTPgjLivMwqt55dhT2HcpzadCrWRoIkDm1EdIZXRUkD6LgttXnbjToKpAkXEZl4j8pXFguA3DEhJH9KnSYpBQCWtfYe2ka/G7gP5t4ShLCQk5Uu50q6gq7JqjxoZb+gwbDVl3FrW1VnfrVI3STWbyK0tmKKuAVXp9xOX6PXOLWjBobPUSzBVUDOBwInDFgdv99mlW+eiZFO/VhnnMvZeYna7K3Dtrl27Juek9emS1SRhPAv7piNHjsgQW4bxRW8mRoARYASygwB29EJiC5Wy3W1MNm/eLHc8DBgwIDtzy/M2bi6OdPnmPf0OmMAb92jaol1yHinCiZYp2nf2pjSSbVnH21Sx3NWz5N/T5CV2TVS10jEW7ElAePB3F8au2sPfBGMSHx8vpQEmJ2Ahs5NfFVm68nSgyVo1hAoHtDkwxKB8U3q6TsVyBvnWJsIFI/SvkGy0FlITkLuQtoCgWlIE+xOokmBbYgu93U2nThv66waC+ujZto0Mmjdt2lTaOmH7enbI2U2nXooI0u06Sk1OpT9fPWK2q+yeG7Md5nIBtvKDgJO1pBg+/M47dOgg7cmsbcv1GAFGgBEwhQCkJqCMV3xTtWzMgzdJeIF0c3Mj7E7QEoxf/fz8tFkFIg77j4PnQ+njX/dRjSrl6PPlB6lRQEU6ffUO3YmKpcqeOknJBeF7pEbVcnQ2KFwyLp2b+OptUrCQqNgEgvQlRWDw4/qTBObl92kDTa4xWtifqJ07dXzLi509TuQldk+M7lFfzgPSmU5i10+4kLqsE6odMC09hedORefPn6dXX31VbsuePXu2yrYq9C7tJu0yoP548999NLxhTSFVICHBCKWhDQKkbQnUIIuOnKP5wtZkUH1/YaR6gw6EhMkdNxXcMrauZjUgtgjD5iRUbCN+Z8sBqfaZ2ae9bNa0ik7VhTEg3Vhz/iphNw2MX69b2HZsasxG3uWpbTVvOUdIb9qJuJbgP2fjxo3077//UlYMc5KwHbl+/J5sXrVxOSpR0oF8mugkWP/NPiftTQ7/fpXiIk1LTHJybrRzNhdPvBFJibd0EpwUoUpMDIumB0eCZXV4dsU2Y1sIW87htRVb+yFZyg49ePBAqnOy05bbMAKMACOgEIDUBKpluzImMIgDwUJ///79aiwZli9fvkAyJhMGNKW9wrh0wdoTcp4vj2hNfdoEUJ/XltNNYduhGJOvVx4mHJCCDOlUh14f3VbamqhFRkTF0aCpf8ok7E+wVbhjoww1haqH8IrYdjzknb9k1qoPh1GLdGnJx093kZKbl77ZIsvAsHRq7CuMajMMX1EQGamTMty6pbOPkZVt+DN/aHd6ed1uqf5QW4bBEDyUblcyrUcrup+QSB9sOyQPdA31yBf9O+pHUSoVZCg1jwpVJdicDFyyTibBOEwVkg3fsjrX6mBGPnqoHU3dtF9u+61UuhRtGDuQ3hLM0tV7mY2PVZ8q1I6PvGfaNJSMyYvtdcapqh5CGGbWq1ePvv/+e2rQoAHVqGGIp7ZuYkwy/Thqp8x641B/ci3jRFUaCnXRC3Vpx9wLtOKlQ1SzUyV6/KcO9GXnf8nBSOaY03OjnYupePhfR+nOsgwL3ZgTIXR50u+yau0FT+q9u5pqaypv3rx5UpqUE+docPEPfJkYAUaAEcgpAl27diUHYQWbhi2DcDiFEAfEtOrAIIjnJ0EHDl8JuUWw74D/kspCUqG1E8F4YDia/99i+vqFntKfiGdpVylh0M4Fu282HwmiDZ+MEPg5kLurZXfm2ram4glJ4q1dOFiDCgfGpaYIb+be3t452oaNdcOYtYJgEkxJQrADJvheNFUTu19Ki+23tlDTOcuotW8l+kT4IykjvtdiarcN+oPqBUeN8joVki1jaOtOFNuSsVX59EujyVFcw8aEt/oJEybIb8SMHz+ecPG7uGTYFRnXN5WOCU+QNjilK1huZ49zY2p8e+bhsxGrVq2SrunxuQg4W8suDR48mCCCZRuT7CLI7RiB4oNAYGAglStn2SQg8x28+OCjXynevsEEGDMl+goi4uJUksp7ZGZKVB08DD3cnHPMlKA/jFVTqI3MMSWogzfUnPqGwbqxVdgUU4IxsOumfiVPm5kStAUBE/RtjilBHTh2yy5TAq+zMOL9dOcxuQX6/Z6tTTIlGKd06dI0a9YsqWacM2cOjRw5ks6cOYMiq8ldMCRZMSXozB7nxupJZaPil19+Sc8884z0GwDV1tixY7PRS0YTuAPYt28fgeF77733pDO7jFKOMQKMACNgGwJ2VeXYNnThqA1nVVkRpCRMhgjkBSY9flwlpS3Y6fN6l+Y0SvhmsUTYvr5o0SLpe+PcuXNUqpRu546lNkWxrFatWlKl1a1bN2lbktM1wt4JRu+QwkAyZcrdf07H4PaMACNQfBBgVY4V5zpJ7MIoKYwgje0aVFN8NRjbV+HfhEmHAHbXgEypVXQ1cv73/B3xvSCBPYxfmRgBRoARYAQKPgLWqHJYYmLFeXRytMxw6FQuLDXRQpmbDIkaB2ooJkaAEWAEGIGihYDlJ27RWiuvhhFgBBgBRoARYAQKOALMmBTwE8TTYwQYAUaAEWAEihMCuaLKgZM1fFUYRnBwMWvrtszidAJ4rYUHgdSYeAqd+QuVH92DSjWqYTDx8J/W6/35O3p7UrmHdY7kDCpxghFgBBgBRiBLBOzOmPz8888UF6f7TgxGhw8U+Dho3rx5lpPhCoyAFoGw2Svp+ls/6LNc6/uR16M9yXvKSHKw0dD4zsK15N66Hrk1raXvz9ZI4rUwuvXlcnIQ30TKxJgs2kBpwsFggvCS6yq+eMyMia3ocn1GgBFgBHQI2J0xgQ+HChUqyC8Lh4eHSwdOhw4dkt/hgPM2JkbAWgTSknWehGut+ohSomIoesdxujF9kWAMnMh70nBru5H1rk2aQz4zxueIMQFj1PD4InLxM3R5jwHq7fpGjhP0zOcUfzZYxvkPI8AIMAKMgO0I2J1TaNu2rfyGi5OTcOUtvr3h7+8vvW3evXvX9tlxC7MIpIpv8yQE3SL18DauCLUD3vBJbKc1RanxiZRyP1YWpYmP5iXd1n0fxrhumvD+mngj3DjbII25mJuHqij7MDMXVcdcWLpNfSo/ohv5zZ1MlSYOpusIDqZqAABAAElEQVRvzjc5p8TrdwjryglhHViPOXKt40sOwpNtTigl8oGQrNy0OE5O+ue2jAAjwAgUZgTsLjHRghEVFUVXrlyRbu4hRWHKOQJgIEImz6V7q3bpO3MXD+5622fLdHJEFAU//zVFrt4j0yU9SpHvrIlUYWw/Shbu5U/4DKeay96l4BdnU1p8AtXd+hVdHfcpxZ2+QjWWTCWPbs3oRPURsk78pet069PfKCU6TubXXPYelSzjphtX+G0Jm/Mn3Vu5g2KOXNDPpdbKD6hs/3YU+Mh08UE5F6o4/mG69tIcQl+O4svEddbPolINA+hCzymUlphM9XbOgb5P3/729//QzXcXUePAZfo8bcTryT6EOnFnrpKzj+6agn1H6Me/6JkVnw/GUeVXR8tm0duPU2qi7qvC8eeCKWrTIZnvIKR3ZXq11HeN/sK+WkGRa/bI9aJA4Rp7PJDOdXhOXzdg8VtUfmR3fdraCBjByyPfpeiduu8yoR3W0PjSb9Z2wfUYAUaAESjyCOQKY7J69WqChASff4f6ZtCgQUUeyLxYIB7klwa8RYnBoVTjt2nk1qQmxZ26Qg/2ZbhWv/L4RxQrGAWoP1xr+xJsK4Kf+4ocvcpS6Y6N5DTBlFQY25dufbaMLj78JpURzAgoetdJ8ujaVMZvfriUksLuUtXpYyn+4nW6s2AN3Z77F1V5e4wsv/X5H3RDMBBgAHw/e1ZKZ66OnSnsLHSO1TDXmBOBdO/PHVLKgTpBEz4TNiMLqPbqj6nSi8PoymMzKGrDAcnIyE6FROX2N3+R57AuBIbKFDlX16lREq+GymIwaGDEvEV/5R/rRXd/2yLVPaXbN5LrvfbKt5QkvloMihBlYDxAJcVXiBVDgHVe7P8GOYpvAvkvfIOchPEq1p94446s61KjKtXZ8JmQcMRT4PBpWUqHZCMTf4AfmJIav7xD7q3qUkJwmFD7BJmoyVmMACPACBQfBOCgFN6j8bVzUK4wJtiF4+HhQfjacFJSEu3Zs4eGDh0qmZTiA7X9V3r3j21SslHrrxlUtm9bOQAemuUGd5LxmMMXCBKCKlMfp7IPtZZ5Pu+Po3DBnGA3Se21n8g8j46NCfmRq3ZTslAr+M1/VUo1UuPiZTn+QILS4PAPVKqBv3wQgzHBQxWMSYJgCsCUVBjXnyCdACVWqyRD7R+ob6p9OpEqvTBMZnsO7Uz3Nx+W8XIDO0rG6eaHS6hsP7EWITW5v/2Y7DtgydvabgziYChAUNuAQj/+VfbjO/MZEq55RbwahQnm5t7fOyVj0vDIAlnviNtD0sak8iujZFr75+Z7P1HynUiqL+xEFOPj4l9Zz5hASgSGTam+tG1tiadE61RnkCQ5C7wwlkfnzF9DtqVPrssIMAKMQGFHAJtkYP4hPiosl5IrjEmfPn30OG3bto3wWfTdu3dTly5d9PkcsR2B2GOXZKMy3VuYbAxVBahMt4wdUA6OJSUTc3fFdr00o+Kzg3XtRVmlZ4dQCVdnuctFaydSTUg4wJSA0IdHFzyYY2QaDBCo3KCOMjT3p3T7hnqmBHVKColEivjwHgi7aqq8+T+6On4WRQlmBYxU+MJ15N6yrjxkJRN/oKoCOftWJNhqgIGCdOVcp+cNaide00lJDDLNJKJ3npRjKqbETLUcZ0OtdW/ldil1gTSr4oQB5PVkP7PSoRwPyB0wAowAI1BIEMDu3evXr8vZ5gpjosWhffv2kjHBB76YcoaAg/jqMAhv3o4uZc13ZvxRQaFOkyTEZSC9nYiIO1f1knnGf5yqGOYnhtymMj11NhlxQkUDguRFUcrd+yqqD2FToiXjLb6ej3QVapcfpX0I7E6glgn48Q1tk0xxzAPkIh7sEP+BIDHyfKSbjKs/jp4eKmoxlIaoQgLkOaKbQT1zxsAGlWxMuNTyoUZnl4h17qY7wk4m5PXvCVui6+2YQ05V2QbLRji5OiPACBQhBNzd3aXfMzAndt+VY4xTbKxOfF1cnKzBrkY9MI2xUGnUsUTQs0EFZkyl0xmByHX7jYtk2rVuNRlG/3dMXw6bj6j1+8itWS0p+dAX2BCBCgfqG/e29WWrEm6uMowP1HG32AF0dfynMk8rdclqCAcnR6kaijl4jq4+8ZGUHJQbolNLmWt7a9bvsgj2NWA+sIU3+XaklLhA6qIO+CzREoxMk0IjtFky7iCkRaD489dkiD93l23TGQ+nb1fWF9ghgjVjhxGMjqFag7rr7h//2aFn7oIRYAQYgcKNAKQmILsyJniYbtiwgW7dEttYxdtsSEgIbdq0SQ7UtKnOqFImiuif8+fP0yOPPEKTJ082u8K///5b1lm8eLHJOgkJCfS///2PRo0aRfCgqyUPocIBgxH87BcUsXQTxQnDSRi+3vpU97DGwxgGrrfnr5b2IHgQh368VO4yUbtUtP1ZiqNvqEkift1Ml0dMF9KSFlR+VA/ZBLtVQDemLSKoiC4+/IZgenSXUtKtzA9/WdnMn/Kje8rdOlhHxWcGy508xlWxwyh88QaCYW/k2r3kN+9lcqygkxjBZgQ7bWDzgu3R2IYLg18Y9mrJvXV9OddYIe2BMe/tb/+mpFt3pRoL68EYaHdzxs9il9In0oEadhKJC1nbjYzDiRqYqURhvGqKoPJCOQ7saFJ0adDbFLHkX0q4clOOnRiis5NxrGQoWVL1OWQEGAFGoDghAKlJtWrV7Gv8mio+dX/t2jUKDtbZOgBQ7MpRvk2KOsCRkZFyiWDMzNHNmzdlEVz2myIwJjExOluOBw8eSCNiVQ+2FHjLDp74JcGRlyJIDSq//qg0IMWOj6AJn9PFvq+pYqr+1QsEw1M4KQNhq6ye1FZdmadzaIYybL/FAXVM+VE9qer7T+klLthmW/H/BtKdH9bQ/S2HyXNIZ/Jf8BqdrDHK7MNaP55RRG4pFn2FfrRUGtMaFctk0MQvZAi7DN+Z/0cVxJZhRV5iJ05yxH0K/fBnPTMCexjMT0twrhY47B061/45mY11KRsZv29eoosD3iQ4YUM+tjzDuPba5G/kFmvH8mV0XaVjFTrzV2FM/CuBKUK/xgSG5ny3l2Q2tnErRs5VqHJCZ/1GCRMzzj12ICmGz7gfTjMCjAAjUNwQ6Nq1KzkIK9g0MA/4rg1CHLCQVQdAQdxawk4c6IigwsHOHG9vb2lta217U/XA7NStW9dUUYHLg9QEa/b09DQ5N6hpzpw5Q/Xr1ydnZ50awbgi7HGAY/Xq1Y2L9Om0hCSpXoHBZgk3F32+isB2Ijk8ipzF7hIYr1pL2J1ywm+ktPUo81Arkg9lM+c/6WY4QRWif3BbO4imHlQ/Z9tOlNtn/cXuoGyT2GocH3hDGsWawkP1K52wCQdqLjWrGri1l3gKCQiYB+zuyU2CPxlIa5yFHQ8MgpkYAUaAESguCAQGBlK5cpalxHY3fgWD4+fnV1wwzrROuOS3RI6OjtI9v6U6Pj7i4ZgFwfuoaz3zjAseeDl56KF/+D6xRNk22BTqETyc04SX1uvTfiTsJoKUIkeErcLCK2tWhN08pkjiaUV7U21tzYNtjLXGubb2zfUZAUaAESjsCNidMSnsgBT7+eeytAD4JoXdE2ofnWdWbCmus24WuQRUKfbQMwCMACPACDACueRgjYEtvAhAStIicr1N6h9bVwvD1fr75gkD1nJ6t/K29sH1GQFGgBFgBIomAiwxKZrnNUercnDO3csCNi9uTWvlaI7cmBFgBBgBRqBoIqDZnlE0F8irYgQYAUaAEWAEGIHCgwAzJoXnXPFMGQFGgBFgBBiBIo9A7srsCwF8y5aJL+yKb/l4eXnJ3TKdOln2PFoIlsRTZAQYAUaAEWAECi0CuSox2b59O33//ffSb0dBRUi5ysdHBj/55BM6depUQZ0qz4sRYAQYAUaAESjyCOSaxAQeTuFsrKDT0KFDCQe+XwN38mBQGjduXNCnzfNjBBgBRoARYASKJAK5IjGBd1N8MwdeZAsLqQ/rVajAX3ktLOeM58kIMAKMACNQ9BDIFc5h69at8uu43bp1KzSIwU0uKCvPrYVmQTxRRoARYAQYAUagECJgd8YkKCiIrl69Ss2bN6fy5csXGkjwwTyQsjkpNBPniTICjAAjwAgwAkUIAbsyJomJibRlyxb58T58UbgwUdOmTeWHDOfMmUO7du2i8PDwwjR9nisjwAgwAowAI1AkELArYwKmBPYlderUkVtwg4ODJUihoaEyHR0dXWBBw9eA33jjDYLEZ9asWfT5558X2LnyxBgBRoARYAQYgaKKgF135URGRkqcjhw5YoAX7DdwwOakoNpwRERESIakdu3aNGbMGKpfv77BGjjBCDACjAAjwAgwArmPgF0Zk8cee8xgxlCHrFy5kjp37kwNGzY0KCtoCfgvSUlJoeeee47AnDAxAowAI8AIMAKMQN4jYFdVTt5P334jenh4yM5iY2Pt1yn3xAgwAowAI8AIMAI2IZCrjInyY+Lg4GDTpPKjcq1ateSwhcEpXH7gw2MyAowAI8AIMAJ5gYBdVTnGE8Z24YkTJxpnF8i0o6MOinv37hXI+fGkGAFGgBFgBBiB4oBArjImhQFAfMTv+PHjctcQ5tulS5fCMG2eIyPACDACjAAjUCQRKPaMiZubG1WqVElucW7ZsiU1aNCgSJ5oXhQjwAgwAowAI1AYECj2jMmgQYMKw3niOTICjAAjwAgwAsUCgVw1fi0WCPIiGQFGgBFgBBgBRsBuCDBjYjcouSNGgBFgBBgBRoARyCkCzJjkFEFuzwgwAowAI8AIMAJ2Q6DY25jYDckcdnQmKJxOBN7W99KzpR95e7rr0xzJOwTi4uJo8+bNdOfOHRo/frx+4KS4FNox9wI1HuRL3nXL6PPNRe7fiqNLO8KoYT8fci3jZK6azfnhK8UnH1LTqMLIVhSx+jilxiZSxdFtDPpJCn9A8VfDKS0phUrVqkROlXQOBFWlrPqYPXs21ahRQ3ptLleunGqW7fDYsWO0d+9eunv3LlWpUoWefvrpbPfFDRkBRqBoI2B3xmTJkiVkyntqo0aNqFOnTkUbzRys7sK1u/TLlrOUkJRMl67foyUVHmbGJAd4Zrfp/Pnzaf369fLzBB07djToJvJGLO1ZeIlKOjtYxZhEXH1Aa6efIL9WXnZlTG4v2UfJ0fGSMbnz20FKvBmpZ0xS4xLp4lOLKSHkrsHcK45qTVUn9dTnWeoDlU6fPi2Zs4ULF9JTTz1FQ4YM0be1NXLt2jWaNm0aubq6Eu4DpUuXtrULrs8IMALFCAG7MybAzsnJiRo3bmwAY/Xq1Q3SnDBEYFiXOoQjOOw+dZ70q2Ehp/IEAfi0WbNmDfXr148eeeQR8vb2Nhi3Yi0PemFjTyrn42aQn9cJSD8cnHU/XSfvMpSakKSfQpqQpJRuWZ38ZgwWkhJvSrx9n668tIzu/HFIMC+theREJ+mx1Ac6W7BgAV2+fJnwogHmpHLlytSuXTv9OLZEICkBzZs3T27Nt6Ut12UEGIHih0Cu2JjgjahNmzYGB25shYFi4pOElDzN5FRjxQPgxp1os+VodjPiAT0Qb62WCP2jr5xQRFQc3Y9JMNtFmhgDYvOcUkxiEl2+G0XJqakmu7odE0eh0TEmy5AZERuvb4u+IuNNzzkpJZWuRT4w2w8KogVmps+MrhnmeD3Kch/mBjh8+DD98ssvUnXx/PPPZ2JKVDuvgNJCYpL1zyYxNplSU0zPNqfnxrlKWb1qxrmiBzmnMxuYY0l3F/J9rS+Vqi2YKvElCGfBuJQf2EROPyU6A3tLfai11qxZk6ZPn07+/v40c+ZMCgkJUUU2hV5eXrK+KUmqTR1xZUaAESgWCOSKxARf6U1ISCAXF5dCAWJcQjLN/uswbTxwla6ERurn/N9Xj1LNquXorhCbv/nDdtp48KosK13KiaY90ZEe7VFfX3fd/sv02vf/CaZEx3B0buJLXzzbgyqXz7ATgTTk21VHafORIAJjAariVZoOzHtc309WkSMXb9F7i/fQics6e5QB7WvS5892JzcXQxuGl19+mS5dukRvv/02dejQIatuM5Xfio6lif9sp0PXM+xeqpcrTfsmPiLrHg8NpydXbKFwwXiAPFycaeHQ7tTJvwr9c+4qTVm3m77o35FeWL2Tqni40/wh3WjYrxtk3U3jBpGnqws1n/sHff1wJ7oQHkkLDp2VDEzdCuXo7zH9qayrs6x7Ny6e3t1ykDYHXheMSQbDd+zFUVTJvRT5fLKY3ujaghKSU2juvlOyD8zz37GDqIzoo+P8vyhJXI8HnhuB57Sevtpzgr4Wx6lJo2W9uXPnEj6hMGXKFH0dFQk9E0U/DNuukjT8i5bUaICvPq0isEHZOe8CndsUShFB5hmknJ6bsl3rUvJ93fXj0aEmlbpnnulPFYw27Ekcy5Yi15oV1VTJ2j5KlixJH3zwgVTn/Pjjj/Tee+/p+7A2UrduXVk1MDBQMjnWtuN6jAAjUDwRyBXG5P79+/TTTz8RPuIHr6pw846bfkEkSDneWriD/tp5kd59siO1qONNe0/foFm/HyC82YKe+3oTnRSMwM9vPUw1q5QTtiBn6I3526m8hyv1aR1Ah86H0rNfbaLRglF5bnBzunU3hl6au5WenLmO1s8aQSVLOFC0MFBEOi4xmT4Y24l8hTh+wdoTtP34NathuRoaRY9/vJZa1qlMqz4cJm1RwAzVr+5FLw5radAPGEOQCg0Ks0gkigd5v5/X0N3YBPpSMBctfCrR8Zt3aHdwqGwJKcjgpevJu3QpWv34w+RcsgS9tHYXjVr2r2RcUoQ6AYzCtM0HaETjWrTiVCCN+H0jPdq0Ni09doEOC2anVy3dg/3jHUcoKj6RXmzfmC4KBmXdhWD6fNcxmtG7rWQyHl22ic7fiaTXuzSnFlUr0srTl2nZyUukFZ38cPCMlKZMaN2AqpZxl+PO2XeS3uneiiaJfl9ev4dWnb1CQxvUkPOHxGq+aNM1oKpkSqKjoyk8PFyqb5yddQyRFqLyfu705JKOBCnI7xMPmJaEiEtl7bsn6OQ/IdTn7UZUrVl5uro/nLZ+eVbblYyrc6LCTBWyyCjXK4MhLtejnvnaYk5BU/+mpNvRVPvHsQb1rO5DtMJvt3nz5nTy5EmDPqxNqBcU4MzECDACjEBWCGQtk86qB6Py9u3bE1y74y3J3d2dbt26RStXrqTIyAxJhFGTfE1uP3FNMiXvCaZkfP8m1Fzo5ZuJXQyKjoudMmBUJjzclLo3q07VhWj89dFtCVKT2X+K3RGCvv3nmAynCymKf+Wy1K5BVXp2UHM6dy2Cdp7Uib+//eeolMb8KMTsAzvUkuPU9vGU7az9A4YIEplZz3SjFkJUP6p7PerQyIf+FEyVMX311VcEKUD37t2Ni7JMLxHMw+0HcfTNwM40qkltqu1VVjIYswd0lm0Xpks3wDy09KlIjSt70Wf9Osqy2XtP6PsHo/BmlxYy3ci7PH3Spz25OJakWGHgqwjj/D2mH73auTnNG9xVZu8MuilDzON02F36UIzzfLvG1L56ZWoumBNjuheXQL+PekgyIuNa1pfSm6B792W1RwRj5FnKhT7674iel9kcGCKlL8+JPkGnTp2SobnPEbiUdiT/thXIr3UFWc/Un8BdYZIp6Tu1MbV7sib5NPUknyamd7Pk5NyYGttcXsgn6yl6/xXy/3AIudUzL1Ux116bD2wSExMpNFTHnGrLzMXxQcz9+/fTZ599JqtAvcvECDACjEBWCNhdYlK7dm2DMY8ePUoHDx6UWwX79+9vUFYQEscuhclp9G7lb3I6l67r7DQ6Ns4Q3TsKCUGP5n60em8gQToAtQoYBDArijqKNOii2B0BhubguVCptmnon/nBqtpkFe47o3tgP/3ZRn3VoFuRevWRPlNE8JYK24DsECQaoD61TRssnw6LkOWd/KrIEH+aV61AjkJChrKO6flPt2pAMelMyOSOzWRd1NHSlI5NqWll3QMfZbUEExQjpEqgvekSmv51/bRNMsWfbCEYNL+MB28ZodaKFxIbUEkHB3qlUzN6R0hv1p0PogH1/Om7A6fJR0hW2lXzlnWuXLkiw2rVqskwO3+uH9d9lbpuj4x5mOsnJ+fGXJ/G+TfnbKW7a09S9ekDqaxgYHNKyngdWGG7rzX0ww8/0K5du2RV2O34+Oh+E9a05TqMACNQfBGwO2NiDGWLFi3o0KFDhLengkjwHQI7j2oaA8LwdPsP7XxLiAeclkoI9QxIqXugrtGSqg9tEJiXwxdu0Yhu9UjbTVhkrLZJlvEUYSAKtc1rRj4r0BDjaPvOsjMLFZwE4wWCiqWSUNcYkxhKklojEg5icGMM3J2d9IxJVQ83XSOjvz5lDLeOhgkJSqd0JuN4aIRkILzcXPWtwoWxrTFVFLYmWsI8tAbMY5rVpZk7jtJH2w9TE8EEwW4GUhhFtWrVktHg4GCrH7qqrQpvnIqkMpVLUTnfjHXGRGQYm6p6eRHCtwl24fi+3pc8+zS0y5BBQUGyH4WVNZ2+8MILcofT8uXL6dtvv6WGDRuSYnCsac91GAFGoHgiYPj6mgsYREVFyYd3QbUxcXN1olC5kyZJrh7xtxbs0CNRM13dsvvUdX0eGI0tR4KoUUBFgvSkiQh3nbxusNNmzxld/Tq+nvKBDWnKVY1hLWxLfhN+S2whSG1C7tyntvWrSCkMJDHqMMWUxMfH29K9vm4X/6oyDrsMU9Sgks5eaE+6RAN1TghjWNiVNPTW7cAw1S6rvK2XdQauHdIlLqWcShIYlZR0W58zQq3zmbA/AZnbJWRqDDBakzs0lbt+Hv1jk5TsQEWlCL41QGfP2nY+VHuEzm4lCQ7VEmN00h7E1wgfJuYou+fGXH8qP0Xs1Lrx+SbyaFeDvAbrpFSqLCfhmTNnpB8S4y3UlvqEKrdJkyY0efJkWQ07n5gYAUaAEcgKAbszJqtWrSJY38PQDW+gf/75p5wD3pYKIrURD3nQB0v20Irt52nE+/9QpXK6nTSQAsDmpE29KvTzptO07+xNCrsXQ1+vPCTVJ88PaS7bPjNI9wD45Lf90vD1qFAP/SAMW2sLpqRLU516oENDXyk1gcErdubAoLaGMKQ1R4E37hH6gbM1RbApgY3Jc19vpvPCfgVz+ffQVXp53jZVRR/CoRV8cRw5orOD0RdYEYEKBztp3t92SO6WOXErnHZcvSnTaA7bEahd3t16iM7evkuXIqLojY17Zc8wNrWFTgnVD3b4LDpyjsb9uY3qVfSkJ5rrdnF0qF5FMiAvix0+c/efooFL18l5of+bFrYomxp/bMt60r4FticjGtckN6cMYSG2t1esWJG2bdtG1jAMEUExBNUNHK4pghM10MaPT9Pxv67R4jF7yKNihqRH1UOYk3Oj7cdUPE6oDNOEZK2km7NU5UCdo44E4cQvO3T79m1p+AomIzv04IFuh1LZsmWz05zbMAKMQDFDIOPubKeF4ya2ZcsWfW/YmdOzZ88CK8LFlt9tR4Np2bZz8nhaGLl2aFiVxn26QUpDIIn4bspD8uE/SjAtimaM60z929aUyQ4NfejrF3rSZLETZ/HG0zKvVd3K9M2LvWQfyHjn8fZ0PiSCZizdK21RPhzXhS4I+5XlghkyRR8s0T3oIRHBbiBQ3Wrladm0QfT2wp300GvLZR5UO33b1pBx7Z+bN3X2KNhtYithm+2GsQPoKcEovLf1oL55BaFSebdHa4LqZPmjfejJlVup96LVshxGrUtG9CJ/zzKS0VCNlLpHhSpfhT8fPU840L632KnzSd8OkulB+Rtdm8udQNiJA4Jh6/BGNenhn9dK6UcrsVsIZKhEk1mZ/oAReVRISRaLsZ5tq5OQaCthmzC2Vn/66afSd4e2TMWVVApbgnF0nFCber3aQBa3GOFHF7eH0bGVwfJoN7Ym1e7qTUuf2ksORmq+nJwbNRdzYUr6dvXIbecJh5aqPt+dKj6WocLSlpmLJycn09SpU2XxhAkTzFWzmH/hwgVZbmx/ZrERFzICjECxRcAhLCwsDcwD/BUgxAFJgTqADOK2EKQlYFDwJmqL6NfcGHBprXwhmKuTk3xoCkKEh0wv4evBXah2IO34UDAQ535+WqZV31FCTH73frywR/HQMxyqDGGyeFO9LhyweYi3Va8yhnYPqhy+TPzEzh6ogMbOWk+RwkcKtv7aSjfEt1DcXBzJU2xZNkU4B8ANuylsPX/a/qCeCRQSEX9PD4LNiDHBKVqa+Fe9nPBGalxoIR32IJZazF0ubT0eFgapYHZMtYetCCQy1cqWNpByWOjaZBFUPy3FeE3EDqKlI3ubrANpH7ycYnv7yJEjyd/f32Q9s5niOrp3PYbcvVyEasc8z2+vc2N2HnYqgFt6eH6FimvGjBlyy3B2uv7jjz9o6dKlBD8o9rgfZGcO3IYRYAQKBgLQqGT1/S3zd88crMHDw4NwFAaC9KFRQAXq2MhXfB8lVapGoKqBe3gwKVoqK7xq4jBHYDawXdiYwPiM/uAfmjCgKTWpUYkiHyTQyh0XpKQGztGyQz4VSltsBvztoT6DJKOh2OprjuDMLCfk6ugoHaWZ6wOSFjhdyw7BSBfGstih89qGvdIZ3Ls925jtCt+Dgbfcv/76i3bu3Cm3vb///vtm62cqEJyVZzWdGjBTmSbDXudG06Xdo0888YTEAi8sL774YraZEkwMjB4Yk2effZZgPIuXDO3HEe0+ee6QEWAECjUCucKYFCZEYAfys1C/vPnDDjltGKkOaF+LoKqxJ8H/yWvzt+s9viL9zuMdaKTYqVMcKSdSHGvxCr0fQ63nrZDVoWJaNLyH3I5sqf24ceNo8ODBcou7so2wVL+oloGZCAgIIPglcnNzy9Eysb0YKjIYv0ZEREgj2hx1yI0ZAUagSCOQK6oceyOW26oczDdCuPi+J9QqNYQLenP2EPZYF1Q5zo4l5BZle/RXmPuAh1kY0eYW3lDfwLC2krubUDXlTLJTmHHmuTMCjAAjUFAQyDdVTkEBwJZ5wCbElF2ILX1YUxf2JUw6BJyFmiA3CUyPMpDNzXG4b0aAEWAEGAH7IWD37cL2mxr3xAgwAowAI8AIMALFDQFmTIrbGef1MgKMACPACDACBRiBXDN+TRX6fXzwKzY2lry8vMjT0zNH21YLMIY8tWKCQGpMPIXO/IXKj+5BpRoZ+o4J/2m9/ovHjt6eVO7h9sUEFV4mI8AIMAL2RSBXGBO4r969e7f+OzKYcocOHaR7avtOn3srygiEzV5J19/6Qb9E1/p+5PVoT/KeMpIcxNZsW+jOwrXk3roeuTWtZUszg7qJ18Lo1pfLycHZMTNjsmiD8LiaQgmXb5BrnerMmBggxwlGgBFgBKxHwO6MyaVLl+QXRStVqkS9e/cmJycnwgfAIDVhYgRsQSAt/QvBtVZ9RClRMRS94zjdmL5IMAZO5D1puC1d0bVJc8hnxvgcMSZgjBoeX0QufrqvEmsnUG/XNzIZ9MznFH82WFvEcUaAEWAEGAEbELA7Y7J3717pRRbOquBFFlSvXvH01WHDebC5ampsAiXdvkfOvhXJQThBMyaoHZKFx1RnX+G23cglOuqmii8HpyUmU8kybvLbKqjrVMnTuBtKS0oW40SSs0+FTGUqA3OBFMHUPFSdxBvh5FxFMKcm5qLqmAtLt6lPJcV23/IjulEJwZRcf3M+eQ7vmmlOidfvkGOFslRCuNTPLoEZAi4l3Ew70nOt45vdrvXtUoS33OSI++Qk8DA3jr4yRxgBRoARKGYI2JUxwZeE4+LiqHLlynqmpJjhmevLBTMSMnku3Vu1Sz+Wu3hw19s+W6bBYAQ//zVFrt4j0yU9SpHvrIlUYWw/Sr4XTSd8hlPNZe9S8Iv/3955wEdVdG38hPTeQ0togRBKAGlKByNgQZoFRf0ssSD6KrYXy2sviA3FCgqiWEABI9JCQEG6gECAACGQkJBKEtJJzzdnNveyG3aT3bC7pDzjb3fvnZk7M/e/kfvsmTNnPqHqklLqvnkeJTzwHl04cpq6fP8SuY/uR4c63CbrlJw8S+nv/USVBRdkfvCy16SQkQ2LcLYZ81fS+RVbqWi/Zi8Uzu+64g3yvPEair/1FWrl7Ej+ETdR0pPziduy8/eikHVzyblXZzoR/pQUAKF/z+c9D2ST/Jb51e+U+upiCotfpuZpH/jeO17WuXA0QRUm7N+R9s4PxOKHU/s3HqA2z94hjwu2HKSqMs3O0SXHzlDexr0y30aIZo/rBshjfuP2Mub9Srl/7JD3y3kK1+KD8XRs6EzOkqnzkhfI5/YxyqnRn5X5xXTq9lep4O9D6jUs+MJO/qSe4wAEQAAEWjoBswqT8+c1O+GyMNm4cSMlJydLgcJ7jowePRrOr5f518a/5E9OeIHKzqRRl59eJpc+wXTh8Gkq3HVUbfn0PW9TsRAKPP3h1C2Q2LfizMx5ZOfrSW7Dest6LEr87rue0t9fRnE3PU8eQoxwKtgWQ+6j+srj1LeWUnlGDrV75T4qiTtL577+gzI/W0VtX7xblqd/sJxShIBgARD4/qPE/hcJ982R1heuwGMtOhRP51dupYAZk2SdxIfeFz4jX1O31e9QwH+m0unpb1Le+j1SyMhGq6op89NV5D11JLGg0pccOmimUcoS0mQxCzQWYq1Fez7Tr6OcnzbJ6R63Ib3l/SY98zmVn82UdbNFGQsPTrYerqog4PuMu3E22QmrTKdvZpO9cF7l+y9LOSfrOnZpRyHr36eq4hKKv+VlUqaYZKEJb8yPRUmXH/5HrgO7U+mZDDHtk2hCC6gKAiAAAs2PQLX4oRsdHU28aSgnswqT/Px82WhMTIz85H0xcnNziXcXLSoqogkTJsh8vDWMQM7yP6Vlo+uqN8nzes0usfzQ9Jo0XDZYtO8EsYWg7Uv3kOe4QTKv/esPUJYQJ7yapNuad2We+7Aw4vzcyO1UIaYVOi54Vlo1qi6UqANjC0rPfQvJuWcn+SBmYcIPVRYmpUIUsCjxe+BGaZ3gi8qCNDv9qg1wnrBgBL03gwIenyqzvaeMoPzoffLY6+ZhUjilvvU9ed4g7kVYTfK3HJBtd/7+Re1mdI5ZUHDiaRtOae/8KNsJnPOInCZy6hZEGULcnP/tbylMeu3/Wtbb7zJO+pi0eWaaPNd+S33tW6o4l0s9hJ+IInwcO7VRhQlPd7FgY4vH5aTKAs31bElyELy4L/cRfS6nSVwLAiAAAk2eAG9Rwv6oYlNheS9mFSZOTk6yUV4qfOedd5Knp2ZDO94ULSUlhThf8Ttp8iSvwA0UHzgpe/UY019v7zxVwclj9FVqOft9sIjJ+XWLas3wf3SSplyUBTwqfIGETwavctG2BAQJKwiLEk7chvtIfjAXyXMWQJy8Jg6Tn4be3Ib0UkUJ12E/kcrCC7I699f2+bsoIWIu5QmxwkIq65u15Dqgu3wZapOnqjixbw37arCAYuvKseGP6VxSlqSxkuhkGjgp+DtG9qmIEgPVLjubp7XOr9girS5szfJ/aAL53nuDQevQZXeIBkAABECgiRAYPHgwnT17Vo7WrMLEw0MTbt3Z2VkVJdxLhw4dKDMzk9gHheOZIDWMgI29xsmVf3nbOWpEn96WajuYtqpZWsvbHIvEFgAlObQTDql6Ejtmaqey5EzyCNf4ZFwQUzSc2PKipMocjbVMOedP9inRTrWX+HrfOkpMuyyS/iHsd8LTMp0Xzda+5JJjHgcnR/FgZ/MfJ7YYed86Wh4rb3bexu1uzeKGLUDet+lez7485k6OXdtT79jvxX1up3PClyb5v18RL4kO3Tqf7NsZdi429zjQHgiAAAg0NgKurq4UGBgoxYlpwSDquRNeIswWkdLSUmkdUapnZWmcEhULipLfHD9LSkrUB6ah++M6dSWeZysv1zhsatdzqxECuWt3a2erx07dg+RxwV8H1LzqyirKW7eLXPp1rXPVjHqBngOewuGHt+vVPWRpKxeNZawkXqNueQVQQsR7skzb6qKnKZ0sG3s7OTVU9M8xSvi/t6XlwGuyZlpKp6LWSfrcn+UZ+9ew+OAlvBVi1RBbXLRfHLNEO7GTaXlatnaWPLapWcFTcjxJLctZ9qfGebhmubJaYIYDvmdeXcROxzy1xtNdOcv/MkPLaAIEQAAEmjYBtppwMqswYVHCfiU8ZbNp0ya5Qof9SziOSVBQULOfxjl+/DjdeuutNGvWLIN/Hb/99puss2TJEr11WNTdddddNG3aNCooKNCp4y6mcFhgnHn0Q8peupEuCMdJdnxNf0/zsOaHMTu4Zi5YLf1B+EGc9s5SucpEWaWi02AdJ9w2T5Nk/xhNp257RVhL+pPPtGvlFbxahVPKy4vlFFHcTbOF6NH8KZWnX/rwl5UNvPncES4tK3wf/o9Mkit5alflFUZZS9YTO/bmrtlJHb94Wi4L5nrsM8IrbdjnhR1wS0+lSodfduzVTq6DesixFgtrDzvzZn7+G5Wn58hpLL4f7oMdhVPf/E6sUnpXBlDjlURCZWo3I485iBqLqTLhvKov8ZQXl/OLVzQp6eTEFyn7+ygqPZ0q+y5L1vjJ2AXoWpaU+vgEARAAgZZEgK0mrBXMOpXDAEePHk28Ouf06dPyxXk8fXPdddfxYbNO7OjLKT093eB9pqamyjIO168vsTBhR2FOhYWF5O5+cUqCfSn4V/aZGR8RB/JSElsN2vz3TulAyis+Eh/6gOKuf04ppg7zHid2POUgZZx4qayalKW6Mq9Szeblt/zi6RifaeHU7vX7VYsLL7P1f/hmOrfwD8rftI+8J4+gTl8/RzFdphl8WKsN1zqQS4pFW2lvL5XOtLWK5WnijA/lJ/tlBM55mPzEkmEl+YqVOBwTJO2t7+QqI85nfxgen3bi4GrxU/9Hx4bMlNl8X4qPTMdPn6S4Cc/LIGycz0ue2bk2adancom1nU/NjtA1rNLm/CiciX+UoojbrZ1Y0Bwf/aTM5mXcipBzElM5aXN/otIZF797XoGkCL7a7eAcBEAABFoagVGjRpGN8IKtZkuHrdiCnj/5xR6yyouh8LGpif1J2K+ERYmf3+XNnyclJVH37t1NHcIVqc9Wk9atWxv0peFpGg7Z36NHD3Jw0B8IjB2FK0V4c/bNMZSqS8vl9Ao7bOoL0iWDeGWJAGtidUldgc9qt8+rUw51vF36eniMG0jyoWzg+y9PzSKeClEf3LUbM+Kcp35ir54hl892EquDGpzEUuOS+BTpFKuPh9IuCw4OCOcY3E4nrL3kKSwgLB4aEgROad+YT44nw9YaDjjHDsFIIAACINBSCMTHx5OXV91WYrNbTBS47E/SEnxKlPtVPuuLcmtnZ0d9+/ZVquv9bN9ePBzrSTaO9uQUali48APvch563D7HPqkrNdhhU0yP8MO5WkSfPfvyIuLVRGyluKwkHH6NicrKq3n0JcnTDFFd9bVdO499Y4x1zq19Lc5BAARAoLkTsJgwae7gmu391V7RY4EbLc84L6Z9NJFZeUlxyNq55Ni5rQV6QpMgAAIgAAJNjQCESVP7xiw8XraS9M9dZ9L0j6lD4v1seuz6Qjiweqlh5U1tA/VBAARAAASaJwEIk+b5vV7WXfGGfJZM7PPi0rerJbtA2yAAAiAAAk2UgNbyjCZ6Bxg2CIAACIAACIBAsyEAYdJsvkrcCAiAAAiAAAg0fQKWtdk3AT7LlokdduPiyNfXV66WGT687sijTeCWMEQQAAEQAAEQaLIEzC5MFixYYDAk+/Tp00nZT6exEHN0dJRD2b59O61fv57mzJlDYWFhjWV4GAcIgAAIgAAItCgCZhcm/FDnIGLaKSEhQYand3G5uHmcdvmVPJ4yZQrxi/ev4XDyLFAgTK7kN4K+QQAEQAAEWjIBswuToUOH6vC8cOECcTRUGf9eBBdrrEnZWO9yo9Q21vvDuEAABEAABECgKRCwuPPr6tWrZZj7sWPHNmoeHCaXU32RWxv1TWBwIAACIAACINDECVhUmOzYsUNu6Dd+/HiD+8I0Fn68YR4nxeeksYwL4wABEAABEACBlkTAYsKEd9E9fPiwtEDwNE5jT7x/DW9kOH/+fNq2bRtlZWU19iFjfCAAAiAAAiDQ7AhYRJhUi03aNmzYQE5OTjRy5MgmAY13QZ49ezYlJibS3Llz6YMPPmgS48YgQQAEQAAEQKA5EbCIN+qhQ4eorKyMeAqnVSuLaB+zfwfZ2dlSkHTr1o3uvvtu6tGjh9n7QIMgAAIgAAIgAAJ1E7CIMGFHUhYknTt3rrv3RlTK006VlZU0c+ZMYnGCBAIgAAIgAAIgYH0CFjFnFBQUyGkc699Ow3t0d3eXFxcXFze8EVwJAiAAAiAAAiBwWQQsIkyqqqrI3t7+sgZm7Yu7du0qu+SYK0ggAAIgAAIgAAJXhoBFpnIiIiKuzN1cRq92NcHfzp8/fxmt4FIQAAEQAAEQAIHLIWARYXI5A7L2tbyJ38GDB+VGftx3U1lFZG1O6A8EQAAEQAAErEGgxQsT3r8nICCAQkJCaMCAAdSzZ09rcEcfIAACIAACIAACegi0eGEyceJEPViQBQIgAAIgAAIgcCUIWMT59UrcCPoEARAAARAAARBo+gQgTJr+d4g7AAEQAAEQAIFmQwDCpNl8lbgREAABEAABEGj6BCzmY1JeXk5nzpwhLy8v8vPzswipOXPmEMdMYefV0aNHI2KrRSijURAAARAAARCwHgGLCJN169ZRcnIy8WZ+nPz9/WnKlClm3zfH2dmZMjMzaf369bRmzRpavnx5k4s4a72vGj2BAAiAAAiAQOMnYPapnNOnT1NSUhINHjyY7rvvPurUqROdO3dOWk/MjWPWrFn0zjvv0PPPPy/3ueF4JEggAAIgAAIgAAJNl4DZhUliYqKkERYWJq0X/fr1k+e8f46lkrK/ja+vr6W6QLsgAAIgAAIgAAJWIGB2YaLsObN27VpiP5MtW7aQjY0NBQcHW+x2Tp48KdtuSrsZWwwGGgYBEAABEACBJkzA7D4mHTp0IH7xdM7ixYslmnHjxpGrq6vFMLE1xtbW1mLto2EQAAEQAAEQAAHrEDC7xYSHrYgQdn5la4myQZ6lbon3t6msrKQPP/yQDh06RJacNrLUPaBdEAABEAABEAABIrMLk127dtGxY8eoffv2dNNNN0nGvEqHV89YKg0cOJDGjh1L27Zto5deeok2bNhgqa7QLgiAAAiAAAiAgAUJmFWYcEyRmJgY4mW8N998MwUFBdGYMWPksuEdO3ZY7DZ2795N0dHRUpzMmzePJk2aZLG+0DAIgAAIgAAIgIDlCJhVmPAUCk/fcNwSJXXr1k3GL8nPz1eyzP65c+dO6WPy+OOPyyBrDg4OZu8DDYIACIAACIAACFiegFmFiYeHhxQhHFzt1KlTVFpaSiwa2JKiLVbMfVvcL/uYKAHdzN0+2gMBEAABEAABELAOAbOuymFH12uvvZZ42oanVpTEzrA8pWOpxFYZThzcLSQkxFLdoF0QAAEQAAEQAAELEzCrMOGxchwTfuXk5EiHVx8fH7mXjSXvw9HRUTafm5tryW7QNgiAAAiAAAiAgIUJmF2YKONlQcIvSybexC8jI4MSEhKkj0nfvn0t2R3aBgEQAAEQAAEQsDABiwkTC49bNu/u7k4uLi7Ey4V5qkixnFijb/QBAiAAAiAAAiBgfgJNWpjwKhwkEAABEAABEACB5kPArKtymg8W3AkIgAAIgAAIgMCVIABhciWoo08QAAEQAAEQAAG9BCBM9GJBJgiAAAiAAAiAwJUgYBEfk/LyckpLS5OB1QIDAy2+id+VAIc+QQAEQAAEQAAEzE/A7MKEl+5ycDWO9qqk8PBwGSpeOccnCIAACIAACIAACOgjYNapnOLiYtq4caPcxO+uu+6iCRMmEO9bs3nzZsrLy9PXP/JAAARAAARAAARAQCVgVmFy+PBhuV8NCxKOMcLTOP3795edHThwQO0UByAAAiAAAiAAAiCgj4BZhcn58+dlH97e3mpffn5+8pg39kMCARAAARAAARAAgboImFWY6BMhsbGxsn/eaRgJBEAABEAABEAABOoiYFbnV97Z999//6X169dLZ9dz587JzfxatWpFlZWVdY0DZSAAAiAAAiAAAiBAZrWYeHh40JQpU+TmfSdPnpRiZPTo0XK5sL29PXCDAAiAAAiAAAiAQJ0EzGox4Z78/f3p1ltvVTstKSmhLVu2kLbfiVqIAxAAARAAARAAARDQImBWi4lWu+ohxzXh1KNHDzUPByAAAiAAAiAAAiCgj4DZhcnRo0cpNTVVBlhLTEykbdu2EU/j9O7dW1//yAMBEAABEAABEAABlYDZp3L27dtHFy5cUDtwdXWlqVOnEjvAIoEACIAACIAACIBAXQTMLkzuvPNOysrKoqKiIgoICCBPT8+6+kcZCIAACIAACIAACKgEzC5MOAR9u3bt1A5wAAIgAAIgAAIgAALGEsD8irGkUA8EQAAEQAAEQMDiBCBMLI4YHYAACIAACIAACBhLAMLEWFKoBwIgAAIgAAIgYHECECYWR4wOQAAEQAAEQAAEjCUAYWIsKdQDARAAARAAARCwOAGzr8pRRsxLhvPy8uQKHWdnZyXbYp/FKcmU/vdmOn/4INm7e1CHSbeSV88+FusPDYNAQwlkfLqKHDsEkNek4TpN5G3YQ+Wp2Zo8GyLfe8aTjZ2tTp2melJakER5yVvJvc0gcvYJbaq3YbZx86am0dHRdPz4ccrPz6dhw4ZReHi42dpHQyDQlAmYLEyqqqpo9+7dFBMTIyO6RkRE6Nw/B1f75ZdfdIKshYWFyf/xdCqa8aTgVBxtvGE4OQhB4j90JOUejSGPbqHNUpiUZJ2j5D9WUtDNt5CTn78ZKTbPpjI+WUFnX1io3pxTj47ke2c4tX7qdrKxNc1gyMKBqok8b7habc/kg+pqSnvrO3Lq0ekSYZK/aT8V7jxCFedyqSwli7xvHUO27pYX9SbfgwkX5KfupGO/T6byC+fUq9zbDKa+0wXLFpzWrVtHCxYsID8/P7kTu5OTUwumgVsHAV0CJgkTtoBERkZK0WFjI37S6Um///67LB83bhwFBQXR2rVr6fDhw3Jzv5CQED1XXH5WzDsvk5OvH42L2kX2Hs07oNuF9FT696WnyDusH4SJEX861RWVslbXyLepMq+ICrYepJRXFpONgz21fuIWI1q4WCVryQaqKi69PGEi/r/pdWAR2Tg7Xmy45ijog5nyKPvHaEp86P1LyptaRllRGh1ZobECdL/hB/IJnkg5p1ZTeUmNVaip3ZAZx8tbdbi7u9OSJUvM2CqaAoHmQcCkn4w8PcOh5dnk2KZNm0sI5OTkUG5uLnXs2JG6dOkiLSoccI3Tv//+e0l9c2Xkxgrhc81wo0RJ2fkcKsnMMNh1RVGh+FUsfhYbSFXlZVRZWqK3lPPLC/JlWbUw1Zacy9Rbj60e5fl5esuUTB5HWe555dQin/zQLk1Mlw9bfR1UFZVQWZJgVWWAh+BUkXXxPsrTc/Q1I/PKkjNJEQn6KvEDv65yvoYtCVUlZfourzfPbXAP8rltNHX8bBYFzJhEZ59fIK0StS/kPirzxN/AZSS+D74fQ8m+nR/ZebsbKjYqvzK3kEpPiT2p6uinvoaqKyqoKCmR+G+6rtTQv0W2lFRVlFD3G38m/x53ka2Du/xsd9UTtbqrpuLsozpWlVoViEVOdVW5zK4sy6fyYv3/b3F+acHZ2per59xGRenFv1m1QOuA61w4H6eVY/5DX19fKi01/Ddi/h7RIgg0HQImWUyCg4OJX5xiY2MvuUtlJ+G2bdvKsuTkZEpKSiK2rrBgMXc6f+SQEBnpVHgmgbz79qe0P6NkFy7tg8ize095HPP2/ygleh0NX7SMdv/nAco5uF/mD/rgC+oy/X55XJaXS7Hz3qGUqDWyLZkp3iYfOUuOPr7yNGP7Fjq56AtR5w+lmDpPu4f6vTqXfuvZjoYtWk77Zz9OFSUlFP77ZtrzeATlHjtMQ75aSh0m3iqvydq3mw688qw6hqCJt9DgjxaQnYsrZe//hzbdPIquW/M3nfphESUs+05e0/W+R2jAOx9TRXERndu9nQpOn9S09c8uVdw4+vqTj7h/Y1N1WQWlzf2R0ub8qF7i1C2Qgn99g5xCAqkiO4/OPPYx5a7eIct5OiFw7gzyu+8GeX58xH/IZ9oYOv/7dirccURc97qsm710o3zoB330GB0bOpPcR/Yl92v7U9Jj86QIcGjvR11XzyFnMZ0ikxA2GfNX0vkVW6lo/wlNnnjvuuIN8rzxGlmW9vb31HP/N5Rw/xzZF1fqvGg2+YjpmJTXvqVzX0ZSr4OLyb6t5nvi8uKD8bL/kA36rQ6+946nzK+EZe9oAvGYOBXujqWzz32pjsP7llHU6atnqJWrE104fJrK0rKpXEyvVJWWU97GvfIafnO7pifZerjKc24vY96vlPvHDqos0OwX5SoEUeiWT2T5wdaT1Hz/BydQh/m1H9CyWp1vlfnFdOr2V6ng70NqPb6HsJM/qef1HbAgOfLR2xT78btq1W73P0p9X3mHbB2d6v1bVC+q56Dw3EFy9BBTZ10nG6x5du97lLj9BfFjoErWcXBrT2G3bpJ+KGmHvqDTfz1JnUd9JD6fIDtHTwqd8AsdWaX5O+wnpoN4qojrXHXPAYrbcC8VnYuR7Xh3up56TV2v9puXvIVOb3mKirJEeU1fdk6+dM3MLFln+0c21K7/k0JIXaD0w9/IOlw+8IETVFlWSHsXdSHvjuN02uQL938bSpXlhTT4YcNiSB2E1gHvts5WE/6xx9M5SCAAAhcJmGQxuXiZ/iN24uLEwoR9Udi5y8PDgzp37izztTf3kxnijZ2/Vq5cqfNatWoVlZdrfh0p9fR9nv5xMe2ccY8sSl69Uh7zeeKvP6jVqyrKqTj1LP055Try6NqdxqzQiBfFKsL/SO9+7D469dMSCn3sGRq7dhv1EJ8y1VhOcmNjaMvtN1BFUQGN+vkPITz+JPcu3aiqTPzSrKnDoqTznfdRRWEBbZ12E3mECB+XHmF0btc22VRBQjxtnT6RHLx86Lo/tgpB8hXxmOO+/qymK80/zHueiKDsf/+haz5dTN1nPEnxSxYQCxq2vvC9HX7vDVn/6Mdz1PuNX/KVzDP2ja0FLEoC336Iesd8SyFr55K3sCYoPhen73mbCv76l3j6o/fR78hPPETPzJwnHrg7ZRf8cE57fxnZt/Yhl35dZVnxgXjih3le1D9qnbz1eyh+8kvkffsYKWzYbyLpCc1Dmiulf7Bc+n+4j7mKuv/5MXVeIh5QIlVXalhUl1fIB3nc+GfJ1tWZuq58kzzC+1NCxFxiceX/0M2ynMWNdspavE4KDrdhYdrZ6rFDh9byuCwhTX6WxqdQ/KQXyFZYMVhEdPzyGTq/citlfLZKlp9btJYS7nlLipYLR07LYz7nV9nZc7JOeUYOxd04m4r2HqdO38yW7XhcN1CMr1iW8xsLv5D175Nj57ZUbcTft3qh1kGmGBOLki4//I/Cji+lkKgPqM2zd2jVqP/w2BcfSVHS/+15NGHPcRo8byGd/PZLOjznFXlxdc2D29DfYv09EJUVpojvsYxc/fsarJ4V9yslbptN7q0HUr+79grLyo/SanLwp8FCO1Sor8RtzxMLDbZ0HP3tJvINniSFQ+6ZaFFHM1UXs3wkleafoaCrXyIH1zZ0PnEDZR7T/DtQknuKjqwcK60gXUZ9SD0mRZKje5AYX6nO2NJjvpaiJKDH3RR0zcviR0a2EDNPS3HlGThStlmSG69eU5R1WLR5gtr0jlDzjD1QLMmFhYXGXoJ6INBiCJhkMamPiiI8/P396e+//6Yy8eCePHmypOXGGgAANsBJREFUal0pLi6m2it02rdvT1u2bNFpmn9B2Nvb6+TpOxkw5xPi18qQAAqdMYt6Pf2ivmpSLHQQzqKDPvxSLbextZXHZyJ/kZaWIV98Rx0m3y7zCpMS1Hp8sPfZmWTn5k4jf/ydWtlrpqYchU+LdvK7ehj1eeENOrs2Ulgycmnwxwtp//NPUMUFzYPp1Pdfy3GwpcalXSD5DhhMZ1YtEyLqR+r55Gy1qUpRf/ymf8jB24cCho+mE199QrziyG/gNXRLXCaxlWjjuGto1E+rZZ56oZEHbP5na0GbZ6YJB9Db5FWOXdsTiwNORftOUMGWg9T2pXvIc9wgmdf+9Qco65s1Qsz8QF43D5V5/Nbp6+co5eVFlPlFJIWseZeKY07p/JIvOXmWOi14VqwuGSevYf+OvHW7pagoSzlHKa8uJr8HbqT2bzwgy8uCAuRn7TfnsC4U/JN4aLayoaoLpZS/+V8qF1MubClgywM7uPK92Ad4E09xnBNjDXz3EVVo1W5PsXAoooLrs4Wj4xdPkUOgP7GVI2f5Zsr5aRO1nT2dOnz8H/k6dcfrcuqk2+p3ajdJqcJ6w9NAPbZ9SorwcezURliKNMKFL2ALEic7Hw/52ZA3Rei0Ej4qDoIX9+U+oo/RTbEQP/zuq+Q3aAh1u3+GvI4tf6kb19CJhZ9Sz6cu/j9k6G+RxN9ifUmxXLh4dzdYNfHv/8qyXlPXEVsn3IRAYQtI2sHPKePIIvW6NmERwprxFO0TVgsnz87UY+Iq2vGxvbRU2NnWOI2KHwgDHzwl2/FoN0wImBsp5/QaYpFxfO0dUuT0u/tfcvXTiNUUYampKNGdKq2qKJaiRQof0XvKvvdJESJdRn9CB5b2pVPCOtNrylo5tqRdrxHZtKL2A2t+yKgjNnyQlpYmFw788IPwufHxocDAQMOVUQICLZSAWYWJIjpSU1OlJaRXr17yf77s7GyJ18XF5RLM7ADGPilnzpxRy0aOHKkem+OARUX/d+apTd2eXCgeWhphwtYITm3GaB6eaqWaA55C4emfLsIaooiS2nX4POSBmTLbxs6OuoljNonbtLIVv8oqZH7mzr/l5/b7NWKATwoSTkmxIgtq3ljQsCjhZC/GzalSTA+ZK7F44GRoZUnJMc334DFaI1S4Li9Z9bz+asr5dYtqzWA/DX44spWFH7gsHi4c0RV0XhOGqqKE23Ed0F0Kk6riEimAOM9r4jD+qDN1WvicFCVcSREV1TW+Jq1n3SqFSOZnv0mBk7P8T9mW791jDbbJU1WcWIRwUqZFeIpESaWnUqRYUc7r+yz4O0benyJK6qvf0HL/iJvE1NcWir9FOHyL6Tf/hyaQ7703GL16p+is5vtte+14nSHw3//Z9aup4JRmqpALL+dv0TWgn2y/OOe4Tj/aJ6WFZ8nBrZ0UE0q+f/c7pDApSP9HtbZ0HPaWsJZopoI7DNVYDFkQaKfQm39V2/EMGiOL2BeFU3H2EVHmrYoSmannzbfbVI01pqaslZ2znNrhU1f/PmKp82A6n7BOWmbsXQIoOz6SfDrfKHxnjBeaTz/9NBUUFMgePv/8c7IT/14ggQAI6BIw6/8VPG3DiZfCsamS1+ZzUvxLFOEiM7Xehg8frgoTtpYEBOj/5ax1iUmHvGKHhYKSFFHC5zkH9pJPvwHk4OmlFFNpjkZIcUbe8ViZHzBslFrOvzrZt8U1sIOaZyeWKivJuW075VD9ZIdIntoJm/2amqce1EwH8bmDt6+abSMcjTWpWs273AMbe40gqziv+cfRYHvCOqGTlLHUjNXWS+NXwXWUB7xOfT35PN3B0xi2Xm504ZDGJO6uNd1SmaN5kNRux9ZDS9Aq46oZh2OXduQ7/ToxLbRMrrJh643ffdfXaZVgR1xOjuLBzqm6ooqce3ehdq/dL8913rgfAyvQlHrSEVVMC/F0mHYqz9T9Ra5d1tBjtm71jv2ezkdup3PC8pX836+kxSh063xip1pj08W/Lc0V6rmZ/hYdXNsK0eogfD4O1jOkWn9niuComU7ii/nBrwgTJ88uettz8gxW8zlmCie2nLDTLDvgegn/EO2kvXxZyecx66ZWYqb24v97XcbMp0M/XyN9WtzbCcuhGKMqlHQvNHj2xRdf0JEjR2jx4sX0/PPP09KlSyFODNJCQUsloDz5zHL/nWt8Sdi/ZOzYsXIFD/uKlIhf/F5eFx/8tTtTrCacb25rSe2+ap+z42l+fJywBGjmqvNPHpfLcblelRAgdjXB4RSnU84/8sGbOk6ynFdfaj1iNBUmJ8rVQ/xrVftV34NPu20HL295WtfKIu36tY/dru4ps3J/21a7SJ47dQ+SnwV/HVDL2ecjb90u6U/S0IBfLIRyft5EbsPDZLutXDRCsST+rDznFUAJEe/J4/pW56gDqzngaSlOp6a9Rjx95CesCnWl9Lk/y2KXPpqHmceYflR2Jo1YJPH0lfZL+7ux8/UU9dIvadrGyUHmlRzXPBD5JGfZnxrnYSFIzZ1s7O3kCqPum+dRNzGFxr47Ocv/Mqobl/YaMa04iisXpW/dJA/dg7spWZf96ebfT6yQSZaWBX2NsaMr+6IoooPrZJ1YLqu6iUBsDU1ndrwsL/XuLCxJYiUQpws5x+QnvyXtfkP4hpwUoqNKzTPmwL3t1dLqkn1KCMI9b5GTRydyC7hoWTSmDW9vbxoxYgRNnz5dWk54gQASCICALgGThAn7kPDKG36xvwhHL1TOOcYJz5l6enrKHlicsCBh6wn/6ujfv79uz7XO2GrCS5DNbS2p1c0lp/5DRsjplENvvUinln5Df90yTsYI4Yol5zLIrXOw9C9hH5EzK3+mfcJvJG7xlzJPKK9L2jOU0fmOe2U/u4QDa96xI3QhI41SNvxBe2Y9ZOgSvfmuYsURT03xyh32PeHVPMe//FhvXX2Zdv5e0i8jW/hPpL75nVzBUiysF+x3wkuDXQeFktuw3pS5QJj1hZNluViNkvbOUjmtYaqTJS9F5hUt+dF7KW78c2Tj5Ejta6wS7MfBKeXlxXKKKO6m2WLKSMOzPP2ixUrfPdTO46Bp3lNHUuGuo3I6haeMaideYZS1ZD2xY2/ump3Cn+RpsvPT/K363nu9vD8u45U1fM/s6Jv48Ps6zbj06SKFD7fF/ik5P2+Wq3laCWHC98P57K/CXBMeeFdaYVgoKQ7S2o2VZ+RS0T/HxPTXae1snePifcdlnfJUzcoRLjw58UXK/j6KSk+nEi/PLkvW+LDYBRgW/tqNthK+W72ffZnO7dlBp39eIpfOJ61eIYL2rRI+J48K52yN8NW+pqHH7GTays6JTqy7UwoOXr1y7vhPlPrvJ7JJnqLhdOz3SUI4HCd+4KcfXki29m7UJsy0/y/YnyT3zEY6vmYaZcX9Qn4htwvR0F+2xf4rLER4Vc6x1VMpaeerUrCwT4n4cuQYjH3rPFrz/1plWQEFDtY4axt7rXa9oqIiear8e6ldhmMQaOkE7EwBwL4jvNJGO0VFRclTJborO7ty5Nf169er1bisvuBqbDWZNGmSeo21Dro/8iRl7thKJxbMl13yP9rtb7iZosIHi9U8yeTduy+xY+y2/5sqlxvzapxrV0XT3mdmiH90Bb4acWKjTDHIVjTmaTllVONj4hnai0b/sl46xG4I1/wa5KmdwBt171m3HYWClrlbTCvweHbNvJf+GBQiK7AjY+ijs5TK9X4GzXtcLoPlFR7KkmEWLNKvRLTPKz4SH/qA4q5/Tm2rg7jGe8oI9Vw1/XOOEkFV+aypxZFSZbRUcc7CodPXz6rLej2uG0D+D99M5xb+Qfmb9pH35BHSmTamyzRhlcioaaGOj1rTK9L3YtXfFPCfqXovSpzxocxnv4zAOQ+Tn1gyrCTnnp0oZN17lPTkfIod9IjM5qkd70m6/i++d4+TjrfsBKskXtrMqeOnT1LchOfFqqP5xCw5n8VL0qxPia1FtR1eFTa8qqnHzi+U5nQ+Waxx4tVTiqOyk5jKSZv7E5XOSFPrMlufadeq5/Ud9PjPs1RemC/+hh9Vq7IPVd//aYSCklnv36JS0cAnT42E3fYXxUZOlA6oSjX21eClueyYys6lSbtep/1LNELV3tmfet+2WbiQ2Atjla1yiXpso0z1qCWag4StT8sDFjX+oXdSyA1L1RqhE5bRUbHEOPXfj0W7dsRTMtxv6oH5wqKTIlboaKb0xJydeo2hA68O1xKPsbK8gFr3fsBQtXrzjx07Jqe7+cccEgiAgC4Bm4yMjGoOmmYrnEH5k18cd0R5cXVDUV51m9I9O3fuHPHy4Xbt2l2yEke3Zv1nHAule/dLfwXXf6VxNaqFdadIrMRxbtOObJ2c9V7EQaZ4ya5bpy7CGfUCRfbpSCEPPkZh/31Vb/26MtnSwVNIipNrXXUNlfHUU2HiKTlejtvSoCQCp/Evb1tfD70Bv9h3ggOoOYjVJaZO4Rwd8JCcGmn3+v1yqa+Ng34NzNYAngqp/eA29X6Sn/5cLlXudUhEdRXOug1N7H/CsUvqGg9zKRPjduzUllq5OKpdVYtl1KVCVLF44BVElkwsdthi4iDit7DPTkMS/x3z36Jz2/by77EhbRh7jbpXjpgOcfbWCGrlWg5oVnTukHzgc9wTU1LK/nnEooRD3PMS4Ev9RDStsXWk6NxhcmszUBU5pvSj1OUlwge+7yOXE3dUHHGVQhM+Z8+eTYmJibRs2bIG/ftqQleoCgKNikB8fHydrh08WP1PCzPcBi8Z5ldTSPzr361TsN6h8lRJ/HcLKPieB0Vskh5CDJymI++/Iadlgm7W/+tcb0NamQ0WElptsDXGPVj3H3itYuMOxcOTnSkNJX7gNfShx22yQKgvwqkpDpu1x8miifvIEoHdeCqqy08vX5Yo4fZ5CW59iZk46xEDNo72MkBdfdebo5y51se2vn5YhF/231B9ndSUO7p3oICe9+itzdYRXip8OcnO0dugKOF2W9m5EPuINCTxtE1VZYlY3RNLsb9NkNNAQYNfbEhT6jWjR48mXpXDviYctHLMmDHYxE+lg4OWTsBiwqS5gHUKaC0CqxXS1rsmqUt7eRUPB1rjqRgk/QS0Vz7pr3H5uSfCn5I+H7zSR041iekgpJZFgJfkWzqlxXxFSswV3hk59Kafpe/M5fR7/fXXk6urK8XFxclVi0rAtctpE9eCQHMhYLGpHHMCsvRUjjFj5SXC+fEnZHC05r5RoDE86qujrKy5nGmV+vooiTsrgrxUip16TTP/19cuypsSgWq5HJidbI3xEWnInXEE2PzU3cLiMlhONzWkDVwDAiCgIXBFp3Ka25fAgdPYgRXJOAKWFCTKCHhfH6SWTsBGWC/0+4WZiwyv6vHpcpO5mkM7IAAC9RBoVU85ikEABEAABEAABEDAagQgTKyGGh2BAAiAAAiAAAjURwDCpIbQqdRcemvpTsor0t1x1BDAqL0JtP2w8HFAAgEQAAEQAAEQMBsBk1flcETX3bt3yx0yeQfgiIiISwaTlZUlA6xxdMOhQ4dSnz7G7356SWNWytgTm0oL1xyikX2DaGSf+uOCLPjjIAX6u9PwMPg5WOkrQjcgAAIgAAItgIBJwoTDzkdGRhKHpjcUdG3nzp1StBgqb6xMbx8TSoNC21LX9uYLyd1Y7xXjAgEQAAEQAIHGSsCkqRy2hHBk2PDwcLmvjb6b4k2pOovN/Dg0fVNKdiKcerdAbyG46h51udiJtrS8su5KKAUBEAABEAABEGgQAZMsJhyhkF+cYmNj9XY4bdo0mc/WlaaQlmw4Qq98u00d6s7P7pZTNGpGzcHOIym0eP1h2rgvQS3iqRwkEAABEAABEAAB8xEwSZiYr9vG09LYgWIDtyBvOnAyg+b+vIeqxP4xtVPsmWy6483VNLR3e/rhpQnkIkKPP/vlX7Wr4RwEQAAEQAAEQOAyCbR4YdLez434Vdf0zOwFW8jN2Z6WvjCB7O00s18+HhxpEgkEQAAEQAAEQMCcBEzyMTFnx02lrWKxY+yhU5k0YUhXVZQ0lbFjnCAAAiAAAiDQ1AhAmNTzjZ1IzpE1hvS6uAtvRWUVZeYW13MlikEABEAABEAABEwlAGFSDzFnB81sV0Jarlrzo1/3UlJGvnqOAxAAARAAARAAAfMQMMnHhOOXpKeny56Li4vFxq6VlJCgWaXi4+NDnp6elJaWRiUlJVRYWCjr8RJjrsPLjDt27GieUVuwlSMJ5ygr/wIFt/MiT1dH6tTGU+NfEn1UHu87kU6R2+NkngWHgaZBAARAAARAoEUSMEmYpKamUnR0tA6oqKgoeR4WFkbDhg2jTZs2EUd8VVJcXBzxiwOuPfLII0p2o/2cMW+jHNuS2TfStf07kpOwmHz2xFi6b+46mvXZZurS1ot+fW0yvbx4G7WqL+hJo71LDAwEQAAEQAAEGicBm4yMjGq2Ztja2kqrBh+ziFBePOwrHcU1KSmJunfvfkUJFpWUU1beBerY2uOKjgOdgwAIgAAIgEBTJRAfH09eXl51Dt8ki0mdLTXzQlcne+IXEgiAAAiAAAiAgOUIwPnVcmzRMgiAAAiAAAiAgIkEIExMBIbqIAACIAACIAACliMAYWI5tmgZBEAABEAABEDARAIQJiYCQ3UQAAEQAAEQAAHLEYAwsRxbtAwCIAACIAACIGAiAYusyiktLSWxDJk4CJuvry/5+fld8SXHJnJBdRAAARAAARAAgStAwGRhUlVVRbt376aYmBiyt7eniIgInWH/8ccflJKSopPHEWFvueUWcnBw0MnHCQiAAAiAAAiAAAhoEzBJmOTl5VFkZCRxaHpDQddcXV1p7Nix1KlTJyovL6fNmzdTcnIyxcbGUr9+/bT7xjEIgAAIgAAIgAAI6BAwyceE973hyLDh4eHUpk0bnYaUk2uvvZaCg4NlJFknJycaMGCALOLpnaaQskV019LySoNDLRNl/NKX+LrCC2WyqLKqWkaK1VeP+8gvaho89I0feSAAAiAAAiBgKQImWUxYcPCLE1tAjEl79uyR1UJCQoypbvU6X685RPNW7KVNH95BT8zfRP8cT5Nj+PjxcJo64uKYN+1PpKUbj9JfB5PUMT42uT89cnM/6hOxmBY+cz298M1WKi2roJVvTKFZn26mY0nZ9PmTY+nmoV3lNfvj0um1JTvo0KlMeT5hSDB98OgYcnFERFkVKg5AAARAAARaNAGTLCamkvrnn3/kbsNsNfH29jb1cqvUr6isElaOcrr99d9lyPlvxeZ9I/oEyg37yiuq5Bh2x6bSA++tJ3s7W1r28kSxid8k8vV0lpaV6upqWYdFyR1jesi2pr/1B3UL9KYeHXxp97FUWZ6Qlkf3vLOGvNwcKfKtqfT+jDG0ZtcpWrQ2xir3iU5AAARAAARAoDES4Ofoxo0bad26dfJlMWFy+PBh+vfff6lz5840aNCgxshCZ0w9O/rSt8/fSOFiR+Hp4T1lWVZesfx8Uuwq3EFs3rfw2fE0tHd7urpHu0v2zbk6tC3NvvNqufswX/ThzGupdxd/ulBaIdv4YdNRKVrmPjKa+ndrTdPGhMq2Vv4dJ8vxBgIgAAIgAAItkQD7rPJimuzsbPkyaSrHWGAnTpygHTt2UIcOHWj8+PHGXnZF630khEQrAYeTu4tm9RD7jKRlF8rXzMlXqeX6Bnrf9WEy29bWhu4Xx472tmTbyoYqKjUWlV1HNZaTB9/foF6emJ4rxYqagQMQAAEQAAEQaIEEBg8eTGfPnpV3bnZhkpmZSX/99Zd0jr3xxhubDF43Z40Y4QErAoVnaY6dyZb3MLRXe/VeWLDk5F9Qz/lAETN83MbHlT90UqWYMuKpnefuGKyTzyfcT40muqQMGSAAAiAAAiDQ3Anwit7AwEApTswuTKKjo+WKnAkTJjQLjk6OGkSnU/NoZJ8geU+vfrtdWjoqKvWvztF348PCAmnZn7FiGqgtnF31AUIeCIAACIBAiyagWE1MEiYcvyQ9PV2C46iuleLBnJCQIM99fHzI3d2dCgoKyMXFhY4cOaIDmJ1fO3bsqJPXFE7YysHpm3WHyMfDiXh1zrbDZ6Xza2pWkdG3wD4l36w9RDM/jqbnhS+Kt7sTHYzPpKi9CcTTSEggAAIgAAIg0JIJsNUkKCiITBImqampxBYR7RQVFSVPw8LCiNUOJxYtHB1WO7FwaWrChKdXWEDw0uFZwgH28U+i5XTMb2I58Nyf99Dp1FwR10Xjl6IdcE6TI6aEuKzGqNI9yEeu6Hnxm79p3HO/SDQseq6/uos2JhyDAAiAAAiAQIslMGrUKLIRe9pUc9A0W1tbGTyNj/khq7yYjvZD90rQSkpKou7du1+JrtU+OSBafnEZBfq7q3kNPUjJKhTTOXZS9DS0DVwHAiAAAiAAAk2NQHx8PHl5edU5bJMsJnW21MwLPVwdiV/mSO393MzRDNoAARAAARAAgWZHwGJxTJodKdwQCIAACIAACICAxQlAmFgcMToAARAAARAAARAwlgCEibGkUA8EQAAEQAAEQMDiBCBMLI4YHYAACIAACIAACBhLAMLEWFKoBwIgAAIgAAIgYHECFlmVw0HW0tLS5BJkDjHr6Gie1SwWp9HMOjhw4ADt3LmTcnJyqG3btvTggw82szvE7YAACIAACDQ3AiYLk6qqKhk8LSYmRu4GGBERocPku+++I44QqySOgcKB16666iolC59WIMCxX15++WVycnKi3r17k5sblihbATu6AAEQAAEQuEwCJgmTvLw8ioyMlMLDUNC10NBQ8vPzkzsLZ2Vl0fr162nv3r3Ut29fGcDtMseLy40kwJYSTl988QUFBAQYeRWqgQAIgAAIgMCVJWCSjwkLDY4MGx4eLncP1jf0q6++moKDg6U1hacPOnXqRGxl4emEpp7yRPTXxPQ8ulBaYfBWikvLKeN8/XvoVFZVU3JmPvFOxdqpSmw1nJV3gZIy8qlC7Ejc0OTrq9njh7cHQAIBEAABEACBpkLAJIsJCw5+cYqNja33HtnCcvr0aSlm2IrSGNO7P++m6H2JtPnDO9Thrd19ih6dt5GOLH5ARnstvFBGEe+tp12xqWqdtr5utOeLe9RzFhPPfvUX/fnvGZnH++AseGY8dWrjKc9zC0upT8Ri+vKpcRR39jx9veag3KHYzdmeYpdofD9iz2TTwx9ukKJEafi20aH04aNjlFOjP5UQ/hz+l8UhEgiAAAiAAAg0BQImCRNjb2j16tXSQlJSUiJFycSJE4291Or1KiqqLrFasDWDU82H2BU4RooSFhX9ggMo+VwBnUi+aAFiC8r9c9fR+cISWvzfG8jOthXNXriVnv96q9y4j9uqFpYQTu8v+4culFXQC9OH0Om0XFr+1zGZz2+vLN5G5WI8v705hQK8XOikEDAlom5DkuJwzI7ISCAAAiAAAiDQVAhYRJjwQ9Hd3Z0qKyupvLycduzYQVOmTGmyPiZsMeHk5GBH7fzcqb3YyO+anu3U73j74bN06FSmtIZcN6CTzL9nbC96b9keOS3j5+ms1mUxwtaZboHetHDNIXIUbSqpQGwSyMnDxZGCAjzkSykz9vP8+fN04sQJWrFihbxE2fHZ2OtRDwRAAARAAASuJIGLT0UzjmL8+PFqa3/++SfFxcXR9u3baeTIkWp+Uzq467pe9MeuU9Iq0qWtF90zrhdNG9ODeBqG0764dPn50a976fPIA/I4v7hUfqbnFJK2MHnj/hFSlHDhQzf1pQdv6iPr8duz0wZTxPvrKfyZZTSiTyDdIfq4aUgwtbKxUevUd7Bw4ULatm2brPbYY49R+/bt67sE5SAAAiAAAiDQaAhYRJho392QIUOkMElJSdHObjTHrVrZyOkT7QHliikZ7dS5rSft+PQuWrfnNC3ZcJhe/26HtHb8/tZUauPjKixDGifVl+4aQjaiPe0U6O+hfUo+Hk7qOesNG/GfksYO7ESHhV/L8r+O0/cbj9Bjn0TTj5tj6ef/TSRjtcnjjz9ON9xwA/3yyy/0+eefU69eveQKKaUPfIIACIAACIBAYyZg0qqchtyIsipE8XloSBuWvMbR3pYKaqwb3E9CWh69+9PuS7pkv5GJQ7vSqjem0E//u5nSsgspcvtJWW9QaFv56eXuRGP6ddB5ebmZFlzO09WRHp7Ql7bMu5Oevm0Q7TySQgfiMy4Zj6EMV1dX6tOnD82aNUtW2bdvn6GqyAcBEAABEACBRkfAJGHCgdMSEhLkiwUH+5Ao57wCh/1JOG5Jenq6dPZMTk6mjRs3ypvmOCaNMfHqmsIL5dJK8ZOwTtzx5mpyFz4e2umed9bQL1uO0xmxhDfzfDGlZBXKYn8vje/I8LBAOT3DK3n2HEulbLFC55/jafTMl39JAaPdlqFjbvveOWvlqp70nCJKFX3kFGgC1Xm7XbSyGLq+dn5hoWaMnp6aVUG1y3EOAiAAAiAAAo2RgElTOampqRQdHa1zH1FRUfI8LCyMBg4cSBxx9MyZM2odjnuixDZRMxvRwZThIbTq7zh6Tiz15TRz8lXUs6MfPS6mUZTEUznzV+0Xy3g1dTj/pmuCadKwbrKKq5M9/fjSzTTz441022u/yzwWPKP6BpGLKNNOtrWmepQydxcHEcK/FT0+P1oKJSX/f/cMJe7f1MQOsJy6ddOM0dTrUR8EQAAEQAAErgQBm4yMjGoWD7a2tnLVDB9zVFflxYMyFOVV34DZinL27FliiwqvzGndurUMtqavrrF5LHaUuBzGXmNqvbNiCbCvhzM5OxrWahyLJDO3iFp7uxJPuehLHISNV9cEipU7DU2pYpqIlyC3E+KmrvHU1f7y5ctp6dKltGjRIvkd1FUXZSAAAiAAAiBgDQIcW8vLy6vOrswuTOrsrYGF1hAmDRxao72MN1F86KGHyMHBgbp27SqFXe19jRrt4DEwEAABEACBZknAGGFi2DzQLJG0nJvi7QDee+89YufX7OxsuZlfy7l73CkIgAAIgEBTJQBh0lS/OSPG3bNnT+IXEgiAAAiAAAg0FQImrcppKjeFcYIACIAACIAACDRNAhAmTfN7w6hBAARAAARAoFkSgDBpll8rbgoEQAAEQAAEmiYB+JiY+XvjpcJ/xyTT/rgMsccN0eAebWncwM5qL38dTKIjp8/Rf6YOUPNwAAIgAAIgAAIgoCFgssWkqqqKdu7cSV999ZWMkVEXyC1btsh6R48eratasykrLi2n6W/9IYO18eZ9J5JziHce1k4rt56g95f/I2OdaOeb8/hoYhZ9F3VEb5MzPoqinvd9o9N/fMp56jDtS9p5tHHuZ6T3RpAJAiAAAiDQLAmYZDHhsPORkZHEoenrC7rGUWKPHz/eLKEZuqlf/jpBh05lUtT7t1OPDr56q7378GiafefVIuy9g95yc2TuPZ5Or3y7je4d31tvcxyCf9G6GJp160C95cgEARAAARAAgStFwCSLSVZWlowOGx4eTm3atDE45oqKCrlnDkeRbUkp7mwO+Xo6GxQlzMLN2Z6CAnR3HDbE6HxBCZ3LLb6kmKPC8t46XN7Q9NGveylL7OlTXyorryR+6UvV1UTZ+Rfb4H2E9CXeOyhfRMRFAgEQAAEQAIH6CJhkMQkODiZ+cYqNjTXY9ubNm+WGftdeey39+eefBus1lwIOIc/TNseTsslTbADIfiSceA+dwTU7D/MUyro9p2V+h9YetH3+XfJY+22O2NV40/5EWvjM9TTrs83S+sLlcx8ZTXde20NWfWvpTlq45pB6GQudlWLHY7bQKOOIPZMly5Vx8ElwWy/ifjnxZ5IQNl/8foBe+b+hMq/2G49j6caj6r1w+WOT+0trz80vrqTJw7vRenE/vFnhouduoA17E+hXsdHhfdf3pjfuHyGb2x+XTq8t2aHex4QhwfTBo2PIxVF3/6DafeMcBEAABECg5RIwSZgYgykxMVHuOHzVVVeRj4+PMZc0+Tp7jqXRS99sVTffe0xs5scpuJ03/fHOLfL4STFt8n9iauWH6KO0KzZV5tV+q6iskrsR3/papNwA8MW7h9C013+XOzVzXRY+LEqeEI6zt40OlVaIYyyGavbt2StEwgtfXzoOvvaV/xumCpOOQpiwQ+43aw/R/UJI1E67xfgeeG+9rLPs5YliHyUbmiF2Ti6tsZywBeWzyH/pmh7tqHdnf/rvwi0U4OlCLDz+PJAkhAlRQloe8a7MA0LaUORbU+nk2fPS94YFFBx/axPHOQiAAAiAgELArMKkrKyMNm3aJDfv4x2FeeqnJaQpwnrAL96ROD2niFa8PvmS21Z8TnjFjiFhwhex/8eEIV3pPWElUZJtzZQYbzTIiXchbuPjSiwwwrr4K9Xkbse84/GSDUekj0nskgfVstoHj07sJ4XJxyv3Ex9rpyeFtYatKgufHS9WFomlRSKx9ad2mvfYtcRWnm/XH5a7Kx8Tlhrl3n7YdFTeC1t7eDPC/t1a02/b42il2MkZwqQ2SZyDAAiAAAgoBMwqTFiUsH9JSEgIxcXFUUGB5kHKG8rZ29sT79/COw4jGSbAUzNvPqCZCuFaCT/PIFtedyzS8LBAGtEnkOYJ/5Cv1xyke8b1pnvG9mrQTsb+Xi7S+fXjFftodN8g2T6/pYlpKX7NnHyVKkrUQq2D+8aHkZODnRhbKxrSsx317OgrLTpKlV1HNVahB9/foGRRYnqualVSM3EAAiAAAiAAAloEzCpMcnNzZdP79+/X6oKIdxPk1+jRoyk0NFSnDCe6BHw8nMnR3lbNVEQJZ7AQ+PGlm6Vfx/diOfCXwkeEXz+8NIFG9rkoLtSL6zmIuLFPjdVkn1rz2JlseTy0V3s1j6dwcrScXLnAw/XiqqK2fm5qXeWgUkxLsZXouTsGK1nqJzvN1hhi1DwcgAAIgAAIgAATMKswmT59ug5VnspZsWIFjRgxgnr16qVThpOGE2CHWn49O20wTXtjNS1aG6MjTDzdHGXjvOrGT6wSMpTYN+WJqQPpnR93qVWcHDV/EqdT89Q2X/12u7R0VFRWqvXqOxgmrDvL/oylq0WAOTi71kcL5SAAAiAAAgoBk9bzcvyShIQE+SouLqZK8aBSzjnGCZJxBErLKujfkxnyxQ6vxqY5P+6mT4RPCK8AyhFLhTPOF4lAaaXkJ6ZltFNoB43T8ZINh2UdXp2zeme8dhX1+P/G95JLnJUMxRfmm3WH5DVPfLqJovYlyDqpWUVKtXo/p40JlWJm5sfRcoqHxxolVu48/UXzX6VVLxxUAAEQAAEQMEjAJIsJB02Ljo7WaSwqKkqeh4WF0bBhw3TKlDgm9QVj07moBZywg+vk/62Sd3pk8QNiWkRj4ajv1ju19ZRLeD/85R+1KguJZ28fpJ7zQWiQLz192yDiWCXzV2mm1XglD6fa3wVbM54RdV/85m9Z5u3uRB8/Hi6XK7MzL7f/m1iOPPfnPXQ6VTNVx+0oTrF8rDjnak87dQ/yIV7Rw+2Oe+4Xribbuv7qLvIYbyAAAiAAAiCgj4BNRkZGNQsIW1tbGTyNj/nhpbz4otoPM30NWTIvKSmJunfvbskumlTbJcLikpSZL5cJB3i5iu9H//CVev5iKS8LDlMSB0TLF/v+BPpfvrNySlahmM6xM3kMpowXdUEABEAABBo/AfY39fLyqnOgJllM6mwJhVYjwE6wIYH1x4gxtp6+gbMVx1hLjr7rtfPa63GO1S7HMQiAAAiAAAgoBEzyMVEuwicIgAAIgAAIgAAIWIIAhIklqKJNEAABEAABEACBBhGAMGkQNlwEAiAAAiAAAiBgCQIQJpagijZBAARAAARAAAQaRADCpEHYcBEIgAAIgAAIgIAlCLT4VTnLli2T+/r4+vpS3759afjw4ZbgjDZBAARAAARAAASMIGCyMKmqqqLdu3dTTEyM3JgvIiJCp5vvv/+eOCps7dS7d+9G+dB3dNQEN9u+fTutX7+e5syZQxwsDgkEQAAEQAAEQMD6BEwSJhx2PjIykjg0fV1B13gn4doP9w4dOlj/7ozoccqUKcSvkpISuvXWW4kFSu2xG9EMqoAACIAACIAACJiBgEnChDfl48iw4eHhFBsbS3yuL7m5udHgwZfuKquvbmPJY2HCyc/Pr7EMCeMAARAAARAAgRZHwCRhEhwcTPzixMLEUOLN/UpLS0mZJjFUrzHlc5hcTqGhoY1pWBgLCIAACIAACLQoAiYJE2PJ5Ofn07fffiutKwEBATRy5Ejy8ak/hLqx7VuiXmFhoWy2KYkpS3BAmyAAAiAAAiBgTQLV1dVyg+CKigrZrdmXCw8ZMoQGDBggN91zdXWl9PR0WrFiBeXmXtyZ1po3bGxfvCKHNzKcP38+bdu2zeA0lbHtoR4IgAAIgAAIgED9BNhnlX1Ts7Oz5cvswqRbt240aNAgGjNmDN11113S14RX8uzcubP+0V3BGt7e3jR79mxKTEykuXPn0gcffHAFR4OuQQAEQAAEQKDlEND2S7XIVI42yv79+9PevXvp/Pnz2tmN7piVGgsSFlZ333039ejRo9GNEQMCARAAARAAgeZIgGdYAgMD6ezZs2R2i0ltYLzEmOePGruPyeHDh4mddmfOnCmnolxcXGrfCs5BAARAAARAAAQsRECxmphkMeH4JewzwomDqPGDPCEhQZ6z8PD09JRxTjiYWuvWrSknJ4c2b94sy3v16iU/G+ubu7u7HJq+4HCNdcwYFwiAAAiAAAg0FwJsNQkKCiKThElqaqr0nNWGEBUVJU85KNmwYcMoMzOTNm3apFZR4p401gBrykC7du0qD48fPy5D0yv5+AQBEAABEAABELAOgVGjRpkmTLTjmBga4sMPP0wFBQVSoHCgNbacNIVkZ6fRaI3dF6YpsMQYQQAEQAAEQKAhBHiFjkkWE2M74WkRZWrE2GuuVD3exO/gwYNyIz8eA8dcQQIBEAABEAABELgyBCwiTK7MrTSsV3Zy5SBwISEh0um1Z8+eDWsIV4EACIAACIAACFw2gRYvTCZOnHjZENEACIAACIAACICAeQhYfLmweYaJVkAABEAABEAABFoCAQiTlvAt4x5BAARAAARAoIkQgDBpIl8UhgkCIAACIAACLYGAxXxMeH+ctLQ0GYjN19eXeC8aXgZkzjRnzhzifth5dfTo0TKcvDnbR1sgAAIgAAIgAALWJWCyMGEhsHv3boqJiZG7AUZERFwy4qNHj9L27dtlKHqlcOjQodSnTx/l1Cyfzs7OMl7K+vXrac2aNbR8+XJycnIyS9toBARAAARAAARAwPoETBImvO9NZGQkcWh6Q9aPkydP0rZt26QVY+zYsVK88I69bDUxd5o1a5Zs8p9//qE33nhDxiO55pprzN0N2gMBEAABEAABELASAZOESVZWFikh5mNjY4nPa6edO3eSra0tTZ48Wdbl8tDQ0NrVzHqu7G9jCfFj1oGiMRAAARAAARAAgToJmCRMtEPSszCpndiiwtaUNm3aqKKkdh1LnLOVhlPnzp0t0TzaBAEQAAEQAAEQsBIBk4RJfWNS9plhYbJx40ZKTk6WAqVTp07SOdXQ9E997dZXznvzsJUGCQRAAARAAARAoGkTMOty4fz8fEmDHWPZr4QtGJ6ennTixAlau3atxUjx/jaVlZX04Ycf0qFDh+QmghbrDA2DAAiAAAiAAAhYjIBZLSbKihheuXPnnXdKUcIjX7VqFaWkpMilveyjYu40cOBAYkfb6Oho6Xh777330m233WbubtAeCIAACIAACICAhQmYVZh4eHjI4fIyXraUKKlDhw5yWS/7oHA8E3MnXr7MooTFyY033kgdO3Y0dxdoDwRAAARAAARAwAoEzCpMONAZW0RKS0t1rCPK6h1tsWLOe1NWAj3++OPwNTEnWLQFAiAAAiAAAlYmYNK8Cq+4SUhIkC9eost+Hco5W0NYlHTt2lWKkk2bNskVOuxfwv4mQUFBFlupw5YaHkt1dbWV8aE7EAABEAABEAABcxIwyWKSmpoqp0y0BxAVFSVPw8LCaNiwYXL1Da/OOX36tHxxIU/fXHfdddqXmfW4W7dusj3uMyQkxKxtozEQAAEQAAEQAAHrETBJmGjHMTE0RLaa3HLLLcQWlMzMTClK/Pz8DFU3S76jo6NsJzc31yztoREQAAEQAAEQAIErQ8AkYWLKENmfxFI+Jco4eBO/jIwMOZ3EcUz69u2rFOETBEAABEAABECgCRKwmDCxBgt3d3dycXEhXi48ZswYUiwn1ugbfYAACIAACIAACJifQJMWJrwKBwkEQAAEQAAEQKD5EDBpVU7zuW3cCQiAAAiAAAiAQGMkAGHSGL8VjAkEQAAEQAAEWigBCJMW+sXjtkEABEAABECgMRKAMGmM3wrGBAIgAAIgAAItlIDJzq+8QR/vTcM7CNvb21NERIQOugULFhiMwDp9+nRS9tPRuQgnIAACIAACIAACICAImCRMOGhaZGSkDDVvY2OjFyBHgK2oqNAp47D1HM6el/YigQAIgAAIgAAIgIAhAiYJE96MjyO7hoeHU2xsLCmb82k3PnToUO1TKUiOHz8u98qxszOpO512cAICIAACIAACIND8CZikFLRD0rMwMSatXr1aipmxY8caUx11QAAEQAAEQAAEWjABizq/7tixg3hDv/Hjx5ODg0MLxoxbBwEQAAEQAAEQMIaAxYQJ70R8+PBhCg0NldM4xgwGdUAABEAABEAABFo2AYsIk+rqatqwYQM5OTnRyJEjWzZh3D0IgAAIgAAIgIDRBCwiTA4dOkRlZWU0atQo6V9i9GhQEQRAAARAAARAoEUTsIgwiY+Pl4Kkc+fOLRoubh4EQAAEQAAEQMA0AiatyuFYJOnp6bKH4uJiqqysJI5RwsnHx4c8PT3lcUFBgZzGkSd4AwEQAAEQAAEQAAEjCZgkTNihNTo6WqfpqKgoec6B1YYNGyaPOTos+5cggQAIgAAIgAAIgIApBGwyMjKqOWiara2tnH7hY47qqry4MUNRXk3p6HLqJiUlUffu3S+nCVwLAiAAAiAAAiBwhQmwq4eXl1edo7CIj0mdPaIQBEAABEAABEAABAwQgDAxAAbZIAACIAACIAAC1icAYWJ95ugRBEAABEAABEDAAAEIEwNgkA0CIAACIAACIGB9AhAm1meOHkEABEAABEAABAwQgDAxAAbZIAACIAACIAAC1icAYWJ95ugRBEAABEAABEDAAAEIEwNgkA0CIAACIAACIGB9AhAm1meOHkEABEAABEAABAwQgDAxAAbZIAACIAACIAAC1icAYWJ95ugRBEAABEAABEDAAAEIEwNgkA0CIAACIAACIGB9AhAm1meOHkEABEAABEAABAwQgDAxAAbZIAACIAACIAAC1icAYWJ95ugRBEAABEAABEDAAAEIEwNgkA0CIAACIAACIGB9AhAm1meOHkEABEAABEAABAwQgDAxAAbZIAACIAACIAAC1icAYWJ95ugRBEAABEAABEDAAAEIEwNgkA0CIAACIAACIGB9AhAm1meOHkEABEAABEAABAwQgDAxAAbZIAACIAACIAAC1icAYWJ95ugRBEAABEAABEDAAAEIEwNgkA0CIAACIAACIGB9AhAm1meOHkEABEAABEAABAwQgDAxAAbZIAACIAACIAAC1icAYWJ95ugRBEAABEAABEDAAAEIEwNgkA0CIAACIAACIGB9AhAm1meOHkEABEAABEAABAwQgDAxAAbZIAACIAACIAAC1icAYWJ95ugRBEAABEAABEDAAAEIEwNgkA0CIAACIAACIGB9AhAm1meOHkEABEAABEAABAwQgDAxAAbZIAACIAACIAAC1icAYWJ95ugRBEAABEAABEDAAAEIEwNgkA0CIAACIAACIGB9AhAm1meOHkEABEAABEAABAwQgDAxAAbZIAACIAACIAAC1icAYWJ95ugRBEAABEAABEDAAAEIEwNgkA0CIAACIAACIGB9AhAm1meOHkEABEAABEAABAwQgDAxAAbZIAACIAACIAAC1icAYWJ95ugRBEAABEAABEDAAAEIEwNgkA0CIAACIAACIGB9AhAm1meOHkEABEAABEAABAwQgDAxAAbZIAACIAACIAAC1icAYWJ95ugRBEAABEAABEDAAAEIEwNgkA0CIAACIAACIGB9AhAm1meOHkEABEAABEAABAwQgDAxAAbZIAACIAACIAAC1icAYWJ95ugRBEAABEAABEDAAAEIEwNgkA0CIAACIAACIGB9AhAm1meOHkEABEAABEAABAwQgDAxAAbZIAACIAACIAAC1icAYWJ95ugRBEAABEAABEDAAAEIEwNgkA0CIAACIAACIGB9AhAm1meOHkEABEAABEAABAwQgDAxAAbZIAACIAACIAAC1icAYWJ95ugRBEAABEAABEDAAAEIEwNgkA0CIAACIAACIGB9AhAm1meOHkEABEAABEAABAwQgDAxAAbZIAACIAACIAAC1icAYWJ95ugRBEAABEAABEDAAAEIEwNgkA0CIAACIAACIGB9AhAm1meOHkEABEAABEAABAwQgDAxAAbZIAACIAACIAAC1icAYWJ95ugRBEAABEAABEDAAAEIEwNgkA0CIAACIAACIGB9AhAm1meOHkEABEAABEAABAwQgDAxAAbZIAACIAACIAAC1icAYWJ95ugRBEAABEAABEDAAAEIEwNgkA0CIAACIAACIGB9AhAm1meOHkEABEAABEAABAwQ+H+rqeH84qvmcwAAAABJRU5ErkJggg==;" parent="1" vertex="1">
                    <mxGeometry x="175" y="1727" width="550" height="473" as="geometry"/>
                </mxCell>
                <mxCell id="122" style="edgeStyle=none;html=1;entryX=0;entryY=0.5;entryDx=0;entryDy=0;startArrow=classicThin;startFill=1;" edge="1" parent="1" source="117" target="120">
                    <mxGeometry relative="1" as="geometry"/>
                </mxCell>
                <mxCell id="117" value="&lt;font color=&quot;#000000&quot;&gt;query&lt;/font&gt;" style="rounded=0;whiteSpace=wrap;html=1;fontFamily=Helvetica;fontSize=12;fontColor=#FFFFFF;fillColor=#99CCFF;" vertex="1" parent="1">
                    <mxGeometry x="80" y="2360" width="120" height="40" as="geometry"/>
                </mxCell>
                <mxCell id="123" style="edgeStyle=none;html=1;entryX=0;entryY=0.5;entryDx=0;entryDy=0;startArrow=classicThin;startFill=1;" edge="1" parent="1" source="118" target="121">
                    <mxGeometry relative="1" as="geometry"/>
                </mxCell>
                <mxCell id="118" value="&lt;font color=&quot;#000000&quot;&gt;mutation&lt;/font&gt;" style="rounded=0;whiteSpace=wrap;html=1;fontFamily=Helvetica;fontSize=12;fontColor=#FFFFFF;fillColor=#99CCFF;" vertex="1" parent="1">
                    <mxGeometry x="80" y="2400" width="120" height="40" as="geometry"/>
                </mxCell>
                <mxCell id="119" value="GraphQL Schema" style="text;html=1;strokeColor=none;fillColor=none;align=center;verticalAlign=middle;whiteSpace=wrap;rounded=0;" vertex="1" parent="1">
                    <mxGeometry x="90" y="2330" width="100" height="30" as="geometry"/>
                </mxCell>
                <mxCell id="128" style="edgeStyle=none;html=1;entryX=0;entryY=0.5;entryDx=0;entryDy=0;startArrow=classicThin;startFill=1;" edge="1" parent="1" source="120" target="124">
                    <mxGeometry relative="1" as="geometry"/>
                </mxCell>
                <mxCell id="129" style="edgeStyle=none;html=1;entryX=0;entryY=0.5;entryDx=0;entryDy=0;startArrow=classicThin;startFill=1;" edge="1" parent="1" source="120" target="127">
                    <mxGeometry relative="1" as="geometry"/>
                </mxCell>
                <mxCell id="120" value="&lt;font color=&quot;#000000&quot;&gt;Root Query&lt;/font&gt;" style="rounded=0;whiteSpace=wrap;html=1;fontFamily=Helvetica;fontSize=12;fontColor=#FFFFFF;fillColor=#99CCFF;" vertex="1" parent="1">
                    <mxGeometry x="280" y="2340" width="120" height="40" as="geometry"/>
                </mxCell>
                <mxCell id="131" style="edgeStyle=none;html=1;entryX=0;entryY=0.25;entryDx=0;entryDy=0;startArrow=classicThin;startFill=1;" edge="1" parent="1" source="121" target="130">
                    <mxGeometry relative="1" as="geometry"/>
                </mxCell>
                <mxCell id="133" style="edgeStyle=none;html=1;exitX=1;exitY=0.75;exitDx=0;exitDy=0;startArrow=classicThin;startFill=1;" edge="1" parent="1" source="121" target="132">
                    <mxGeometry relative="1" as="geometry"/>
                </mxCell>
                <mxCell id="121" value="&lt;font color=&quot;#000000&quot;&gt;Mutations&lt;/font&gt;" style="rounded=0;whiteSpace=wrap;html=1;fontFamily=Helvetica;fontSize=12;fontColor=#FFFFFF;fillColor=#99CCFF;" vertex="1" parent="1">
                    <mxGeometry x="280" y="2420" width="120" height="40" as="geometry"/>
                </mxCell>
                <mxCell id="124" value="&lt;font color=&quot;#000000&quot;&gt;User Type&lt;/font&gt;" style="rounded=0;whiteSpace=wrap;html=1;fontFamily=Helvetica;fontSize=12;fontColor=#FFFFFF;fillColor=#99CCFF;" vertex="1" parent="1">
                    <mxGeometry x="475" y="2300" width="120" height="40" as="geometry"/>
                </mxCell>
                <mxCell id="127" value="&lt;font color=&quot;#000000&quot;&gt;Company Type&lt;/font&gt;" style="rounded=0;whiteSpace=wrap;html=1;fontFamily=Helvetica;fontSize=12;fontColor=#FFFFFF;fillColor=#99CCFF;" vertex="1" parent="1">
                    <mxGeometry x="475" y="2350" width="120" height="40" as="geometry"/>
                </mxCell>
                <mxCell id="130" value="&lt;font color=&quot;#000000&quot;&gt;addUser&lt;/font&gt;" style="rounded=0;whiteSpace=wrap;html=1;fontFamily=Helvetica;fontSize=12;fontColor=#FFFFFF;fillColor=#99CCFF;" vertex="1" parent="1">
                    <mxGeometry x="475" y="2410" width="120" height="40" as="geometry"/>
                </mxCell>
                <mxCell id="132" value="&lt;font color=&quot;#000000&quot;&gt;deleteUser&lt;/font&gt;" style="rounded=0;whiteSpace=wrap;html=1;fontFamily=Helvetica;fontSize=12;fontColor=#FFFFFF;fillColor=#99CCFF;" vertex="1" parent="1">
                    <mxGeometry x="475" y="2460" width="120" height="40" as="geometry"/>
                </mxCell>
            </root>
        </mxGraphModel>
    </diagram>
</mxfile>